<?xml version="1.0" standalone="no"?>
<!DOCTYPE svg PUBLIC "-//W3C//DTD SVG 1.1//EN" "http://www.w3.org/Graphics/SVG/1.1/DTD/svg11.dtd" >
<svg xmlns="http://www.w3.org/2000/svg">
<metadata></metadata>
<defs>
<font id="moire_lightregular" horiz-adv-x="1352" >
<font-face units-per-em="2048" ascent="1638" descent="-410" />
<missing-glyph horiz-adv-x="532" />
<glyph horiz-adv-x="2048" />
<glyph horiz-adv-x="2048" />
<glyph unicode="&#xd;" horiz-adv-x="0" />
<glyph unicode=" "  horiz-adv-x="532" />
<glyph unicode="&#x09;" horiz-adv-x="532" />
<glyph unicode="&#xa0;" horiz-adv-x="532" />
<glyph unicode="!" horiz-adv-x="422" d="M147 0v176h127v-176h-127zM158 1395v94h104v-94l-18 -1000h-66z" />
<glyph unicode="&#x22;" horiz-adv-x="737" d="M158 1395v94h104v-94l-18 -342h-66zM473 1395v94h105v-94l-19 -342h-65z" />
<glyph unicode="#" d="M92 549v94h293l49 315h-282v95h297l67 422h94l-65 -422h323l68 422h94l-65 -422h292v-95h-307l-49 -315h297v-94h-311l-84 -549h-98l86 549h-324l-84 -549h-98l86 549h-279zM481 643h324l49 315h-324z" />
<glyph unicode="$" d="M80 438v33h98v-16q0 -112 24.5 -183t77.5 -111t137.5 -55t203.5 -16v639l-121 14q-111 12 -186 34t-120.5 62t-65 103t-19.5 158q0 103 31 175t93.5 116t157 64t221.5 20h9v225h92v-225q138 0 236 -22t161 -73t92 -135.5t29 -208.5v-32h-98v16q0 109 -23.5 178.5 t-74.5 110t-130.5 57t-191.5 18.5v-571l145 -14q113 -12 190 -36.5t124 -68.5t67.5 -112t20.5 -168q0 -118 -33 -197.5t-98 -127.5t-163.5 -68.5t-228.5 -20.5h-24v-246h-92v246h-23q-138 0 -236 21.5t-160.5 72.5t-92 135t-29.5 209zM211 1104q0 -77 15 -125t48.5 -76.5 t88.5 -42.5t135 -22l123 -15v561q-103 -2 -180 -14.5t-128 -43.5t-76.5 -84.5t-25.5 -137.5zM713 90q107 1 190 14t139.5 48.5t85.5 98t29 161.5q0 77 -14.5 129t-49.5 85t-95.5 51t-151.5 28l-133 14v-629z" />
<glyph unicode="%" horiz-adv-x="1425" d="M113 1133v124q0 56 12.5 98.5t41 71t75.5 42.5t116 14h43q69 0 116 -14t76 -42.5t41.5 -71t12.5 -98.5v-124q0 -56 -13 -98.5t-42 -71t-76 -42.5t-115 -14h-43q-69 0 -116 14t-75.5 42.5t-41 71t-12.5 98.5zM166 -14l973 1489h104l-971 -1489h-106zM209 1147q0 -39 7 -67 t24.5 -45.5t45.5 -25.5t70 -8h43q43 0 72 8t47 25.5t25.5 45.5t7.5 67v96q0 77 -33 111.5t-119 34.5h-43q-42 0 -70 -8.5t-45.5 -26t-24.5 -45t-7 -66.5v-96zM778 217v125q0 56 12.5 98.5t41.5 70.5t76 42t116 14h43q68 0 115 -14t76 -42t42 -70.5t13 -98.5v-125 q0 -56 -13 -98t-42 -70.5t-76 -42.5t-115 -14h-43q-69 0 -116 14t-76 42.5t-41.5 70.5t-12.5 98zM874 231q0 -39 7 -66.5t24.5 -45t46 -25.5t70.5 -8h43q43 0 72 8t47 25.5t25.5 45t7.5 66.5v97q0 76 -33 110.5t-119 34.5h-43q-42 0 -70.5 -8.5t-46 -26t-24.5 -45t-7 -65.5 v-97z" />
<glyph unicode="&#x26;" horiz-adv-x="1348" d="M123 412v45q0 92 17 162t54 119.5t95 79.5t139 42l-43 49q-60 66 -89.5 138.5t-29.5 146.5q0 73 20 131t66 98.5t121.5 62t185.5 21.5q107 0 181 -17.5t121.5 -53.5t71 -91.5t28.5 -130.5h-100q-5 51 -20.5 88t-48.5 60.5t-86 35t-132 11.5h-23q-85 0 -140 -14.5 t-86.5 -41.5t-43.5 -66t-12 -89q0 -68 21.5 -125t68.5 -108l571 -643q11 23 19 49t16 55l88 340h96l-88 -354q-12 -48 -26.5 -90.5t-32.5 -79.5l215 -242h-119l-145 162q-63 -88 -162.5 -132t-249.5 -44h-82q-118 0 -201 26t-135 79t-76 133t-24 188zM225 416 q0 -89 17.5 -151.5t56.5 -103t101 -59t151 -18.5h106q119 0 199 38t131 114l-489 548q-78 -4 -130 -25.5t-84 -62t-45.5 -101.5t-13.5 -144v-35z" />
<glyph unicode="'" horiz-adv-x="422" d="M158 1395v94h104v-94l-18 -342h-66z" />
<glyph unicode="(" horiz-adv-x="682" d="M246 -43v1176q0 107 17 194t62 148t124 94t202 33v-95q-92 0 -151 -25.5t-93.5 -74t-47.5 -119t-13 -160.5v-1167q0 -90 13 -160.5t47.5 -119t93.5 -74t151 -25.5v-94q-123 0 -202 33t-124 94t-62 147.5t-17 194.5z" />
<glyph unicode=")" horiz-adv-x="682" d="M31 -418q92 0 151 25.5t93.5 74t47.5 119t13 160.5v1167q0 90 -13 160.5t-47.5 119t-93.5 74t-151 25.5v95q123 0 202 -33t124 -94t62 -148t17 -194v-1176q0 -108 -17 -194.5t-62 -147.5t-124 -94t-202 -33v94z" />
<glyph unicode="*" horiz-adv-x="725" d="M68 1260l36 92l226 -101l-19 238h103l-19 -238l226 101l36 -92l-245 -68l174 -207l-84 -55l-140 215l-139 -215l-84 55l174 207z" />
<glyph unicode="+" horiz-adv-x="1229" d="M123 528v97h442v442h97v-442h444v-97h-444v-444h-97v444h-442z" />
<glyph unicode="," horiz-adv-x="422" d="M141 -207l56 207h-50v176h127v-156l-67 -227h-66z" />
<glyph unicode="-" horiz-adv-x="737" d="M123 512v96h491v-96h-491z" />
<glyph unicode="." horiz-adv-x="422" d="M147 0v176h127v-176h-127z" />
<glyph unicode="/" horiz-adv-x="682" d="M0 -14l586 1503h96l-582 -1503h-100z" />
<glyph unicode="0" d="M123 412v651q0 108 21.5 188t71 133t130 79t199.5 26h260q118 0 199 -26t131 -79t72 -133t22 -188v-651q0 -108 -22 -188t-72 -133t-131 -79t-199 -26h-260q-119 0 -199.5 26t-130 79t-71 133t-21.5 188zM225 416q0 -89 15.5 -151.5t51.5 -103t96 -59t149 -18.5h276 q89 0 149 18.5t96.5 59t52 103t15.5 151.5v641q0 88 -15.5 151.5t-52 104t-96.5 59.5t-149 19h-276q-89 0 -149 -19t-96 -59.5t-51.5 -104t-15.5 -151.5v-641z" />
<glyph unicode="1" d="M162 0v96h497v1252l-395 -295l-59 73l473 349h82v-1379h430v-96h-1028z" />
<glyph unicode="2" d="M115 0v262q0 104 22 174t71.5 118t128.5 79.5t193 58.5l301 72q82 19 136.5 45.5t87.5 66.5t47 95.5t14 132.5q0 88 -25.5 144.5t-78.5 89t-136 45t-198 12.5h-16q-119 0 -199 -12t-130.5 -43t-75 -85.5t-30.5 -138.5h-102q6 104 38 175t94.5 115t158 63.5t229.5 19.5h55 q132 0 229.5 -20t162.5 -65t97 -117t32 -177q0 -98 -19.5 -170t-63.5 -124t-117 -87.5t-179 -60.5l-303 -72q-92 -21 -153.5 -46.5t-98.5 -63t-52.5 -92t-15.5 -134.5v-164h1018v-96h-1122z" />
<glyph unicode="3" d="M109 358h102q4 -95 32 -150t78.5 -82.5t124 -34.5t170.5 -7h113q108 0 181 17.5t117.5 57t63.5 102.5t19 155q0 98 -19 158t-58 92.5t-97.5 43.5t-136.5 11h-244v98h262q72 0 122.5 14.5t82 49t45.5 92t14 143.5q0 94 -26 148t-72 82t-110 35.5t-140 7.5h-125 q-101 0 -169.5 -8.5t-111.5 -37.5t-64 -83.5t-27 -145.5h-103q4 110 31 182t81.5 114.5t140.5 59.5t208 17h164q100 0 179.5 -16t135 -57.5t85.5 -113.5t30 -184q0 -75 -10.5 -132.5t-33.5 -99.5t-61.5 -69.5t-93.5 -42.5q65 -17 109 -44.5t70.5 -70t37.5 -102.5t11 -141 q0 -119 -29.5 -201t-88 -133t-146.5 -73.5t-205 -22.5h-179q-111 0 -195 14.5t-142 55t-88.5 113t-34.5 189.5z" />
<glyph unicode="4" d="M82 385v78l858 1026h82v-1010h227v-94h-227v-385h-98v385h-842zM211 479h713v852z" />
<glyph unicode="5" d="M121 358h102q5 -95 32.5 -150t78.5 -82.5t124.5 -34.5t170.5 -7h112q108 0 181 20.5t117.5 66t63.5 118.5t19 178q0 114 -22.5 183t-65 106.5t-104 50t-139.5 12.5h-232q-210 0 -321 -108h-78v764h1028v-97h-930v-561q57 48 135 74.5t178 26.5h238q99 0 177 -21.5 t132 -73t82.5 -138.5t28.5 -218q0 -134 -29.5 -225.5t-88 -148.5t-146.5 -82t-205 -25h-178q-111 0 -195.5 14.5t-142 55t-88.5 113t-35 189.5z" />
<glyph unicode="6" d="M123 467v575q0 447 450 447h158q124 0 212.5 -17.5t146.5 -60t87.5 -114.5t36.5 -181h-102q-8 89 -34 143t-73.5 83.5t-117.5 39t-164 9.5h-137q-92 0 -160 -20.5t-112.5 -64t-66.5 -111t-22 -161.5v-246q68 67 151 98.5t195 31.5h244q99 0 177 -21.5t132 -73 t82.5 -138.5t28.5 -218q0 -134 -29.5 -225.5t-88 -148.5t-146.5 -82t-205 -25h-178q-118 0 -205.5 25t-145 82t-86 148.5t-28.5 225.5zM225 467q0 -105 19 -178t63.5 -118.5t117.5 -66t181 -20.5h142q107 0 180 20.5t117.5 66t63.5 118.5t19 178q0 114 -22.5 183t-65 106.5 t-104 50t-139.5 12.5h-238q-122 0 -202.5 -33.5t-131.5 -85.5v-233z" />
<glyph unicode="7" d="M113 1378v97h1126v-82l-778 -1393h-119l776 1378h-1005z" />
<glyph unicode="8" d="M119 416q0 81 11 141t37 102.5t70 70t109 44.5q-55 15 -93 42.5t-61.5 69.5t-34 99.5t-10.5 132.5q0 112 30 184t85.5 113.5t135.5 57.5t180 16h196q100 0 179.5 -16t135 -57.5t85.5 -113.5t30 -184q0 -75 -10.5 -132.5t-33.5 -99.5t-61 -69.5t-93 -42.5 q65 -17 108.5 -44.5t70 -70t37.5 -102.5t11 -141q0 -119 -29.5 -201t-88 -133t-146.5 -73.5t-205 -22.5h-176q-118 0 -206 22.5t-146.5 73.5t-87.5 133t-29 201zM225 416q0 -92 19 -155t63.5 -102.5t117.5 -57t181 -17.5h139q108 0 181 17.5t117.5 57t63.5 102.5t19 155 q0 98 -19 158t-58 92.5t-97.5 43.5t-136.5 11h-278q-78 0 -136.5 -11t-97.5 -43.5t-58.5 -92.5t-19.5 -158zM254 1118q0 -86 14 -143.5t45.5 -92t82 -49t122.5 -14.5h316q72 0 122 14.5t81.5 49t46 92t14.5 143.5q0 94 -26 148t-72.5 82t-110 35.5t-139.5 7.5h-148 q-76 0 -140 -7.5t-110 -35.5t-72 -82t-26 -148z" />
<glyph unicode="9" d="M113 358h102q5 -89 29 -143t70 -83t114 -38.5t162 -9.5h176q92 0 160 20.5t112.5 64.5t66 113.5t21.5 168.5v235q-68 -66 -150.5 -97.5t-195.5 -31.5h-245q-99 0 -177 20t-132 71t-82.5 137.5t-28.5 218.5q0 133 29 225.5t87.5 150.5t146.5 83.5t206 25.5h180 q117 0 204.5 -25t145.5 -82t86.5 -149t28.5 -225v-566q0 -233 -113.5 -344.5t-337.5 -111.5h-200q-125 0 -211.5 18t-141 61t-81.5 114.5t-31 178.5zM221 1008q0 -114 22.5 -183t65 -107t104.5 -50.5t140 -12.5h240q121 0 201.5 33.5t131.5 85.5v234q0 105 -19 178 t-63.5 118.5t-117.5 66t-181 20.5h-143q-108 0 -181 -20.5t-117.5 -66t-63.5 -118.5t-19 -178z" />
<glyph unicode=":" horiz-adv-x="422" d="M147 0v176h127v-176h-127zM147 676v176h127v-176h-127z" />
<glyph unicode=";" horiz-adv-x="422" d="M141 -207l56 207h-50v176h127v-156l-67 -227h-66zM147 676v176h127v-176h-127z" />
<glyph unicode="&#x3c;" horiz-adv-x="1229" d="M123 537v79l983 459v-102l-858 -393l858 -398v-104z" />
<glyph unicode="=" horiz-adv-x="1229" d="M123 332v96h983v-96h-983zM123 723v96h983v-96h-983z" />
<glyph unicode="&#x3e;" horiz-adv-x="1229" d="M123 78v102l858 393l-858 398v104l983 -459v-79z" />
<glyph unicode="?" horiz-adv-x="1200" d="M104 1116q6 109 34.5 184t86 121t147.5 66t220 20h35q106 0 189 -20.5t140 -66.5t87 -120t30 -180q0 -101 -17 -166t-54.5 -111t-97.5 -79.5t-146 -69.5q-69 -29 -107.5 -51.5t-57 -47t-22.5 -56.5t-4 -80v-64h-104v29q0 56 3.5 98t14 74t29 56.5t48.5 46.5t73 43t102 46 q65 28 110 52.5t73 59t40.5 85t12.5 129.5q0 85 -23 142.5t-68.5 92t-114.5 49.5t-161 15q-114 0 -188.5 -14t-119 -47.5t-64 -91t-23.5 -144.5h-103zM453 0v176h127v-176h-127z" />
<glyph unicode="@" horiz-adv-x="1597" d="M123 461v291q0 147 45 264t126.5 199.5t194.5 126.5t250 44h201q121 0 220 -36.5t169 -104t108 -162t38 -209.5v-239q0 -104 -28.5 -176t-78.5 -116.5t-119.5 -64.5t-150.5 -20h-76v162q-44 -86 -107 -126t-157 -40h-31q-67 0 -116 19t-81.5 54t-48.5 85t-16 112v142 q0 85 24 156t71 122.5t117.5 80t162.5 28.5h266v-711h8q55 0 104 13.5t86.5 46.5t59.5 89t22 140v248q0 94 -31.5 172.5t-90 134.5t-142.5 87.5t-188 31.5h-189q-120 0 -218 -39t-168.5 -110.5t-109 -173t-38.5 -226.5v-291q0 -90 21.5 -159t59 -121t88 -87t108 -57 t118.5 -31.5t121 -9.5h395v-82h-401q-72 0 -144.5 12.5t-139 40t-124 70t-100 103t-66.5 139.5t-24 178zM559 532q0 -192 170 -192h33q52 0 98 18t80 51t54 79.5t20 103.5v377h-170q-144 0 -214.5 -78.5t-70.5 -226.5v-132z" />
<glyph unicode="A" d="M0 0l580 1489h192l580 -1489h-109l-168 434h-799l-167 -434h-109zM313 528h725l-325 865h-74z" />
<glyph unicode="B" horiz-adv-x="1436" d="M180 0v1489h697q100 0 174.5 -16t124 -57.5t74 -113.5t24.5 -184q0 -75 -6.5 -133t-25.5 -100.5t-53 -70t-89 -42.5q65 -17 106 -44t64.5 -69.5t32 -102t8.5 -140.5q0 -119 -22 -199t-71.5 -128t-130.5 -68.5t-198 -20.5h-709zM283 94h626q90 0 147.5 17t90 56t45 102 t12.5 155q0 103 -14 162.5t-46.5 89.5t-86 37.5t-131.5 7.5h-643v-627zM283 815h661q72 0 116 15t68 50.5t31.5 93.5t7.5 144q0 94 -17.5 149t-54 83.5t-92 36.5t-131.5 8h-589v-580z" />
<glyph unicode="C" horiz-adv-x="1477" d="M133 492v505q0 144 31 241.5t96 157t167 85.5t243 26h147q143 0 244.5 -22.5t166.5 -75t95.5 -139t30.5 -215.5v-35h-103v16q0 119 -26.5 193t-84 115t-148.5 55t-220 14h-59q-128 0 -218 -16.5t-147 -64.5t-83.5 -133.5t-26.5 -223.5v-463q0 -138 26.5 -223t83.5 -132.5 t147 -64t218 -16.5h59q128 0 219 14t148.5 55t84.5 115t27 193v16h103v-35q0 -128 -31 -214.5t-96 -139t-167 -75.5t-243 -23h-147q-141 0 -243 26t-167 85.5t-96 157t-31 241.5z" />
<glyph unicode="D" horiz-adv-x="1548" d="M180 0v1489h699q143 0 244.5 -25.5t166.5 -84.5t95 -157t30 -243v-487q0 -144 -31 -238.5t-96 -151t-166.5 -79.5t-242.5 -23h-699zM283 94h600q114 1 195 17.5t132.5 61.5t75 126.5t23.5 212.5v446q0 138 -26 224t-82.5 133t-147 63.5t-219.5 16.5h-551v-1301z" />
<glyph unicode="E" horiz-adv-x="1358" d="M180 0v1489h1045v-94h-942v-580h917v-94h-917v-627h942v-94h-1045z" />
<glyph unicode="F" horiz-adv-x="1358" d="M180 0v1489h1045v-94h-942v-580h917v-94h-917v-721h-103z" />
<glyph unicode="G" horiz-adv-x="1548" d="M133 492v505q0 144 31 241.5t96 157t167 85.5t243 26h196q143 0 244.5 -18.5t166.5 -62.5t95.5 -117t30.5 -181v-28h-107v12q0 95 -26 154t-82.5 91.5t-147 44t-219.5 11.5h-108q-128 0 -218 -16.5t-147 -64.5t-83.5 -133.5t-26.5 -223.5v-463q0 -138 26.5 -223 t83.5 -132.5t147 -64t218 -16.5h121q128 0 218.5 14t147.5 55t83 115t26 193v137h-447v94h553v-250q0 -128 -31 -214.5t-96 -139t-166.5 -75.5t-242.5 -23h-209q-141 0 -243 26t-167 85.5t-96 157t-31 241.5z" />
<glyph unicode="H" horiz-adv-x="1546" d="M180 0v1489h103v-674h981v674h102v-1489h-102v721h-981v-721h-103z" />
<glyph unicode="I" horiz-adv-x="463" d="M180 0v1489h103v-1489h-103z" />
<glyph unicode="J" horiz-adv-x="1307" d="M123 469h102v-14q0 -99 22.5 -171t71.5 -118t126.5 -68t187.5 -22q94 0 169.5 15.5t128.5 58t81 117.5t28 194v1028h103v-1008q0 -143 -30 -239t-92 -153.5t-156.5 -82t-223.5 -24.5h-18q-131 0 -225.5 26t-155.5 84t-90 150.5t-29 226.5z" />
<glyph unicode="K" horiz-adv-x="1370" d="M180 0v1489h103v-674h231l643 674h127l-684 -717l756 -772h-133l-715 721h-225v-721h-103z" />
<glyph unicode="L" horiz-adv-x="1378" d="M180 0v1489h103v-1395h983v-94h-1086z" />
<glyph unicode="M" horiz-adv-x="1872" d="M180 0v1489h170l586 -1397l588 1397h168v-1489h-103v1389l-588 -1389h-133l-585 1389v-1389h-103z" />
<glyph unicode="N" horiz-adv-x="1546" d="M180 0v1489h135l949 -1366v1366h102v-1489h-135l-948 1368v-1368h-103z" />
<glyph unicode="O" horiz-adv-x="1528" d="M133 492v505q0 144 31 241.5t96 157t167 85.5t243 26h188q143 0 244.5 -25.5t166.5 -84.5t95.5 -157t30.5 -243v-505q0 -144 -31 -241.5t-96 -157t-167 -85.5t-243 -26h-188q-141 0 -243 26t-167 85.5t-96 157t-31 241.5zM238 512q0 -138 26.5 -223t83.5 -132.5t147 -64 t218 -16.5h100q128 0 218.5 16t147.5 63.5t83 133t26 223.5v465q0 138 -26 223.5t-82.5 133t-147 63.5t-219.5 16h-100q-128 0 -218 -16.5t-147 -64.5t-83.5 -133.5t-26.5 -223.5v-463z" />
<glyph unicode="P" horiz-adv-x="1444" d="M180 0v1489h715q117 0 196.5 -21t128 -71t70 -132.5t21.5 -205.5q0 -130 -28.5 -211t-82 -126t-131 -61t-174.5 -16h-612v-645h-103zM283 739h626q78 0 134 13.5t92 48.5t52.5 95.5t16.5 154.5q0 93 -12.5 158t-45 106.5t-90 60.5t-147.5 19h-626v-656z" />
<glyph unicode="Q" horiz-adv-x="1528" d="M133 492v505q0 144 31 241.5t96 157t167 85.5t243 26h188q143 0 244.5 -25.5t166.5 -84.5t95.5 -157t30.5 -243v-505q0 -163 -40.5 -266t-125.5 -160l221 -224h-137l-174 178q-57 -20 -127 -29t-154 -9h-188q-141 0 -243 26t-167 85.5t-96 157t-31 241.5zM238 512 q0 -138 26.5 -223t83.5 -132.5t147 -64t218 -16.5h100q75 0 137 5t113 17l-191 197h132l153 -158q69 46 100 134.5t31 240.5v465q0 138 -26 223.5t-82.5 133t-147 63.5t-219.5 16h-100q-128 0 -218 -16.5t-147 -64.5t-83.5 -133.5t-26.5 -223.5v-463z" />
<glyph unicode="R" horiz-adv-x="1436" d="M180 0v1489h697q100 0 174.5 -17t124 -61t74 -120.5t24.5 -196.5q0 -80 -6.5 -142t-25.5 -107t-53 -75t-89 -45q59 -17 95.5 -42.5t57 -65t28 -95t7.5 -131.5v-391h-106v395q0 97 -14 153t-47 84t-86.5 35t-131.5 7h-620v-674h-103zM283 768h661q72 0 116 16.5t68 54.5 t31.5 101t7.5 156q0 101 -17.5 160.5t-54 90t-92 39.5t-131.5 9h-589v-627z" />
<glyph unicode="S" horiz-adv-x="1466" d="M123 434v35h102v-16q0 -119 26.5 -193t84 -115t149 -55t220.5 -14h59q115 0 203.5 12.5t149 48.5t91.5 101t31 170q0 80 -15 133t-52.5 86.5t-100 52t-156.5 29.5l-358 41q-115 13 -192.5 34.5t-124 62.5t-66.5 106.5t-20 166.5q0 107 32 181t96.5 119.5t162.5 66 t229 20.5h104q143 0 244.5 -22.5t166.5 -75t95.5 -139t30.5 -215.5v-35h-103v16q0 119 -26.5 193t-84 115t-148.5 55t-220 14h-16q-115 0 -201 -11t-143.5 -42.5t-86 -88t-28.5 -147.5q0 -79 15.5 -128.5t50.5 -78.5t91.5 -43.5t139.5 -23.5l373 -43q117 -13 196.5 -38 t128 -70t69.5 -115.5t21 -173.5q0 -122 -33.5 -204t-101 -131.5t-168.5 -71t-235 -21.5h-146q-143 0 -244.5 22t-166 74.5t-95 139.5t-30.5 216z" />
<glyph unicode="T" horiz-adv-x="1235" d="M20 1395v94h1194v-94h-546v-1395h-103v1395h-545z" />
<glyph unicode="U" horiz-adv-x="1528" d="M164 492v997h102v-1034q0 -99 24.5 -171t77.5 -118t136.5 -68t202.5 -22h114q102 0 184 15.5t139 57.5t87.5 116t30.5 190v1034h102v-997q0 -143 -29.5 -240.5t-93.5 -157.5t-164.5 -86t-242.5 -26h-140q-142 0 -242.5 26t-164.5 86t-93.5 157.5t-29.5 240.5z" />
<glyph unicode="V" horiz-adv-x="1307" d="M2 1489h104l547 -1397l541 1397h111l-586 -1489h-131z" />
<glyph unicode="W" horiz-adv-x="1935" d="M20 1489h105l440 -1397l334 1397h137l336 -1397l440 1397h103l-479 -1489h-136l-333 1397l-332 -1397h-135z" />
<glyph unicode="X" horiz-adv-x="1309" d="M37 0l549 743l-525 746h117l475 -684l475 684h111l-518 -741l551 -748h-123l-496 688l-501 -688h-115z" />
<glyph unicode="Y" horiz-adv-x="1307" d="M2 1489h117l538 -815l533 815h115l-600 -901v-588h-103v584z" />
<glyph unicode="Z" horiz-adv-x="1382" d="M94 0v80l1039 1315h-1000v94h1135v-80l-1041 -1315h1053v-94h-1186z" />
<glyph unicode="[" horiz-adv-x="682" d="M246 -498v2081h405v-94h-305v-1892h305v-95h-405z" />
<glyph unicode="\" horiz-adv-x="682" d="M0 1489h96l586 -1503h-100z" />
<glyph unicode="]" horiz-adv-x="682" d="M31 -403h305v1892h-305v94h405v-2081h-405v95z" />
<glyph unicode="^" horiz-adv-x="1122" d="M102 723l412 766h94l412 -766h-102l-357 674l-356 -674h-103z" />
<glyph unicode="_" horiz-adv-x="1024" d="M20 -109h984v-96h-984v96z" />
<glyph unicode="`" horiz-adv-x="424" d="M72 1489h114l164 -281h-86z" />
<glyph unicode="a" horiz-adv-x="1147" d="M90 293v8q0 76 18.5 133.5t64 96t123 58t196.5 19.5h403v78q0 77 -16.5 131t-52 87.5t-91 49t-133.5 15.5h-53q-91 0 -148.5 -13.5t-90 -37.5t-44.5 -56t-12 -69v-19h-102v17q0 63 20 114t66 87t122 55.5t187 19.5h63q195 0 290 -91.5t95 -287.5v-688h-100v162 q-17 -35 -46.5 -67t-73.5 -56t-103.5 -38.5t-136.5 -14.5h-43q-119 0 -196.5 19t-123 57.5t-64 96t-18.5 134.5zM193 297q0 -57 12 -97.5t44 -66t88.5 -37.5t145.5 -12h60q97 0 164 21.5t109 56.5t60.5 81t18.5 95v174h-412q-89 0 -145.5 -13t-88.5 -39.5t-44 -67t-12 -95.5 z" />
<glyph unicode="b" horiz-adv-x="1202" d="M162 0v1489h100v-520l-2 -105q47 100 144 151.5t239 51.5h12q118 0 199.5 -26t131 -79t71.5 -133t22 -188v-229q0 -108 -22 -188t-71.5 -133t-131 -79t-199.5 -26h-16q-145 0 -235.5 47.5t-141.5 142.5v-176h-100zM262 418q0 -89 25 -152t72.5 -103.5t117 -59.5 t158.5 -19h29q89 0 149 19t96.5 59.5t52 103.5t15.5 152v217q0 88 -15.5 151.5t-52 104t-96.5 59.5t-149 19h-23q-86 0 -156 -18.5t-119.5 -57t-76.5 -98.5t-27 -144v-233z" />
<glyph unicode="c" horiz-adv-x="1135" d="M123 412v229q0 108 21.5 188t71 133t130 79t199.5 26h43q118 0 199 -20.5t131 -62.5t72 -105t22 -148v-14h-103v8q0 64 -12.5 110t-47 76t-95.5 44t-158 14h-59q-89 0 -149 -19.5t-96 -60.5t-51.5 -104.5t-15.5 -151.5v-217q0 -89 15.5 -151.5t51.5 -103t96 -59 t149 -18.5h59q97 0 158 13t95.5 41t47 70.5t12.5 102.5v11h103v-15q0 -81 -22 -141.5t-72 -100.5t-131 -59.5t-199 -19.5h-43q-119 0 -199.5 26t-130 79t-71 133t-21.5 188z" />
<glyph unicode="d" horiz-adv-x="1202" d="M123 412v229q0 108 22 188t71.5 133t130.5 79t200 26h12q143 0 240 -51.5t143 -151.5l-2 105v520h100v-1489h-100v176q-51 -95 -141.5 -142.5t-235.5 -47.5h-16q-119 0 -200 26t-130.5 79t-71.5 133t-22 188zM225 418q0 -89 15.5 -152t52 -103.5t97 -59.5t149.5 -19h28 q89 0 158.5 19t117 59.5t72.5 103.5t25 152v233q0 84 -27 144t-76.5 98.5t-119.5 57t-156 18.5h-22q-89 0 -149.5 -19t-97 -59.5t-52 -104t-15.5 -151.5v-217z" />
<glyph unicode="e" horiz-adv-x="1135" d="M123 412v229q0 108 21.5 188t71 133t130 79t199.5 26h43q118 0 199 -20.5t131 -62.5t72 -105t22 -148v-203h-787v-112q0 -89 12.5 -151.5t47 -103t95 -59t157.5 -18.5h59q97 0 158 13t95.5 41t47 70.5t12.5 102.5v11h103v-15q0 -81 -22 -141.5t-72 -100.5t-131 -59.5 t-199 -19.5h-43q-119 0 -199.5 26t-130 79t-71 133t-21.5 188zM225 625h684v100q0 64 -12.5 110t-47 76t-95.5 44t-158 14h-59q-97 0 -157.5 -19.5t-95 -60.5t-47 -104.5t-12.5 -151.5v-8z" />
<glyph unicode="f" horiz-adv-x="627" d="M0 956v97h176v28q0 108 9.5 188t45 133t104 79t185.5 26h66v-98h-74q-86 0 -133.5 -19.5t-70.5 -60t-27.5 -104.5t-4.5 -152v-20h289v-97h-289v-956h-100v956h-176z" />
<glyph unicode="g" horiz-adv-x="1202" d="M123 426v215q0 108 22 188t71.5 133t130.5 79t200 26h12q143 0 240 -51.5t143 -151.5v189h98v-1045q0 -108 -23 -188t-74.5 -133t-134 -79t-200.5 -26h-53q-109 0 -183.5 19.5t-123 55t-74 86t-37.5 112.5h103q12 -39 29.5 -71t50.5 -55t87 -35.5t140 -12.5h69 q89 0 151 18.5t100.5 58.5t55.5 103t17 151v178q-51 -95 -141.5 -142.5t-235.5 -47.5h-16q-119 0 -200 26t-130.5 79t-71.5 133t-22 188zM225 432q0 -88 15.5 -151.5t52 -104t97 -59.5t149.5 -19h28q89 0 158.5 19t117 59.5t72.5 104t25 151.5v219q0 84 -27 144t-76.5 98.5 t-119.5 57t-156 18.5h-22q-89 0 -149.5 -19t-97 -59.5t-52 -104t-15.5 -151.5v-203z" />
<glyph unicode="h" horiz-adv-x="1180" d="M162 0v1489h100v-545l-2 -80q19 41 50 78t77 64.5t109 44t147 16.5q195 0 290 -90.5t95 -286.5v-690h-100v690q0 77 -17.5 130t-53.5 86t-91.5 48t-130.5 15q-82 0 -150.5 -18.5t-118 -57t-77 -98t-27.5 -140.5v-655h-100z" />
<glyph unicode="i" horiz-adv-x="424" d="M162 0v1053h100v-1053h-100zM162 1313v176h100v-176h-100z" />
<glyph unicode="j" horiz-adv-x="424" d="M0 -305h8q44 0 73.5 8.5t47.5 32.5t25.5 67.5t7.5 114.5v1135h100v-1153q0 -108 -21.5 -168.5t-58 -90.5t-84 -37t-98.5 -7v98zM162 1313v176h100v-176h-100z" />
<glyph unicode="k" horiz-adv-x="1014" d="M162 0v1489h100v-871h90l455 435h125l-504 -482l555 -571h-129l-514 528h-78v-528h-100z" />
<glyph unicode="l" horiz-adv-x="424" d="M162 0v1489h100v-1489h-100z" />
<glyph unicode="m" horiz-adv-x="1745" d="M162 0v1053h98v-189q18 41 44.5 78t65 64.5t90 44t120.5 16.5q130 0 213.5 -54t115.5 -169q48 111 128 167t208 56q166 0 257 -90.5t91 -286.5v-690h-100v688q0 77 -16.5 130.5t-49 87t-81.5 48.5t-113 15q-60 0 -115 -18.5t-97.5 -56.5t-67.5 -95.5t-25 -136.5v-662 h-101v688q0 77 -16.5 130.5t-49 87t-81.5 48.5t-113 15q-60 0 -115 -19t-97 -58t-67.5 -98.5t-25.5 -140.5v-653h-100z" />
<glyph unicode="n" horiz-adv-x="1180" d="M162 0v1053h98v-189q19 41 50 78t77 64.5t109 44t147 16.5q195 0 290 -90.5t95 -286.5v-690h-100v688q0 77 -17.5 130.5t-53.5 87t-91.5 48.5t-130.5 15q-82 0 -150.5 -19t-118 -58t-77 -98.5t-27.5 -140.5v-653h-100z" />
<glyph unicode="o" horiz-adv-x="1165" d="M123 412v229q0 108 21.5 188t71 133t130 79t199.5 26h73q118 0 199.5 -26t131 -79t71.5 -133t22 -188v-229q0 -108 -22 -188t-71.5 -133t-131 -79t-199.5 -26h-73q-119 0 -199.5 26t-130 79t-71 133t-21.5 188zM225 416q0 -89 15.5 -151.5t51.5 -103t96 -59t149 -18.5h90 q89 0 149 18.5t96.5 59t52 103t15.5 151.5v219q0 88 -15.5 151.5t-52 104t-96.5 59.5t-149 19h-90q-89 0 -149 -19t-96 -59.5t-51.5 -104t-15.5 -151.5v-219z" />
<glyph unicode="p" horiz-adv-x="1202" d="M162 -403v1456h98v-189q47 100 144 151.5t239 51.5h12q118 0 199.5 -26t131 -79t71.5 -133t22 -188v-229q0 -108 -22 -188t-71.5 -133t-131 -79t-199.5 -26h-16q-145 0 -235.5 47.5t-141.5 142.5v-579h-100zM262 418q0 -89 25 -152t72.5 -103.5t117 -59.5t158.5 -19h29 q89 0 149 19t96.5 59.5t52 103.5t15.5 152v217q0 88 -15.5 151.5t-52 104t-96.5 59.5t-149 19h-23q-86 0 -156 -18.5t-119.5 -57t-76.5 -98.5t-27 -144v-233z" />
<glyph unicode="q" horiz-adv-x="1202" d="M123 412v229q0 108 22 188t71.5 133t130.5 79t200 26h12q143 0 240 -51.5t143 -151.5v189h98v-1456h-100v579q-51 -95 -141.5 -142.5t-235.5 -47.5h-16q-119 0 -200 26t-130.5 79t-71.5 133t-22 188zM225 418q0 -89 15.5 -152t52 -103.5t97 -59.5t149.5 -19h28 q89 0 158.5 19t117 59.5t72.5 103.5t25 152v233q0 84 -27 144t-76.5 98.5t-119.5 57t-156 18.5h-22q-89 0 -149.5 -19t-97 -59.5t-52 -104t-15.5 -151.5v-217z" />
<glyph unicode="r" horiz-adv-x="997" d="M162 0v1053h98v-189q15 40 39.5 77t59 65t78.5 44.5t100 16.5h24q155 0 239.5 -85.5t84.5 -250.5v-14h-103v8q0 127 -56 185.5t-175 58.5h-29q-57 0 -105 -24.5t-82.5 -70.5t-53.5 -111t-19 -147v-616h-100z" />
<glyph unicode="s" horiz-adv-x="1102" d="M102 301h103q2 -57 17 -98t50 -67.5t94.5 -39t151.5 -12.5h45q94 0 154.5 14t96 41t49.5 67.5t14 94.5q0 50 -14.5 81t-51.5 50.5t-99.5 30.5t-158.5 22l-18 2q-117 13 -195.5 30t-126.5 47t-68 79t-20 127q0 73 23.5 128.5t74.5 93t131.5 56.5t194.5 19q109 0 185.5 -18 t125 -54t73 -91t30.5 -130h-103q-5 51 -21 87.5t-50 60.5t-89 35.5t-137 11.5h-22q-89 0 -149 -12t-96.5 -36t-52.5 -60.5t-16 -86.5q0 -53 12.5 -85t46.5 -51.5t94.5 -30.5t156.5 -21l18 -2q117 -13 197.5 -31t131 -48.5t73 -78.5t22.5 -121q0 -78 -22 -138t-72 -100 t-131 -60.5t-199 -20.5h-29q-114 0 -194 19.5t-130 58.5t-73.5 98t-26.5 139z" />
<glyph unicode="t" horiz-adv-x="647" d="M0 956v97h176v233h100v-233h310v-97h-310v-536q0 -90 6 -154t30 -105t73 -60t135 -19h60v-96h-60q-117 0 -185.5 26t-104 79t-45 133t-9.5 188v544h-176z" />
<glyph unicode="u" horiz-adv-x="1180" d="M152 362v691h100v-688q0 -77 17.5 -130t53.5 -86t91.5 -48t130.5 -15q82 0 150.5 18.5t118 56.5t77 97.5t27.5 140.5v654h100v-1053h-98v188q-20 -41 -50.5 -77.5t-76.5 -64t-109 -44t-147 -16.5q-98 0 -170.5 22t-120 68t-71 117t-23.5 169z" />
<glyph unicode="v" horiz-adv-x="1061" d="M10 1053h105l417 -961l412 961h107l-463 -1053h-115z" />
<glyph unicode="w" horiz-adv-x="1554" d="M18 1053h105l315 -961l299 961h80l299 -961l316 961h104l-360 -1053h-119l-281 883l-282 -883h-115z" />
<glyph unicode="x" horiz-adv-x="1012" d="M31 0l411 532l-395 521h119l342 -463l344 463h113l-396 -516l412 -537h-123l-352 481l-361 -481h-114z" />
<glyph unicode="y" horiz-adv-x="1061" d="M10 1053h105l422 -951l407 951h107l-531 -1207q-35 -81 -70.5 -130.5t-75.5 -75.5t-87.5 -34.5t-106.5 -8.5h-16v96h31q50 0 85 10t62 35t51 67t51 107l37 88z" />
<glyph unicode="z" horiz-adv-x="1016" d="M72 0v74l716 882h-682v97h824v-74l-719 -883h733v-96h-872z" />
<glyph unicode="{" horiz-adv-x="682" d="M59 510v70q61 10 101 33t63.5 59t33 87t9.5 118v286q0 128 29 212.5t79.5 135t118 71t144.5 20.5h14v-95h-8q-140 0 -208 -82.5t-68 -265.5v-282q0 -136 -40.5 -214.5t-127.5 -113.5q88 -37 128 -119.5t40 -216.5v-283q0 -182 68 -265t208 -83h8v-94h-14 q-77 0 -144.5 20.5t-118 70.5t-79.5 134.5t-29 212.5v287q0 67 -9.5 117.5t-33 87t-63.5 59t-101 33.5z" />
<glyph unicode="|" horiz-adv-x="455" d="M180 -403v1986h94v-1986h-94z" />
<glyph unicode="}" horiz-adv-x="682" d="M31 -418h8q139 0 207.5 83t68.5 265v283q0 135 40.5 214t127.5 114q-88 37 -128 119t-40 217v282q0 183 -68.5 265.5t-207.5 82.5h-8v95h14q77 0 144.5 -20.5t118 -71t79.5 -135t29 -212.5v-286q0 -67 9.5 -118t33 -87t63.5 -59t101 -33v-70q-61 -11 -101 -33.5 t-63.5 -59t-33 -87t-9.5 -117.5v-287q0 -128 -29 -212.5t-79.5 -134.5t-118 -70.5t-144.5 -20.5h-14v94z" />
<glyph unicode="~" horiz-adv-x="1229" d="M123 477v115q43 40 108 69t150 29q75 0 136 -19.5t118 -43.5q28 -12 54.5 -22t53.5 -17.5t56 -12t61 -4.5q46 0 82.5 10t66 26t53 37t44.5 42v-106q-19 -20 -43.5 -39t-55.5 -33.5t-67.5 -23.5t-79.5 -9q-40 0 -74 5.5t-65.5 14.5t-60.5 20.5t-58 23.5q-54 23 -109 39 t-120 16q-81 0 -144.5 -34.5t-105.5 -82.5z" />
<glyph unicode="&#xad;" horiz-adv-x="737" d="M123 512v96h491v-96h-491z" />
<glyph unicode="&#x2000;" horiz-adv-x="850" />
<glyph unicode="&#x2001;" horiz-adv-x="1700" />
<glyph unicode="&#x2002;" horiz-adv-x="850" />
<glyph unicode="&#x2003;" horiz-adv-x="1700" />
<glyph unicode="&#x2004;" horiz-adv-x="566" />
<glyph unicode="&#x2005;" horiz-adv-x="425" />
<glyph unicode="&#x2006;" horiz-adv-x="283" />
<glyph unicode="&#x2007;" horiz-adv-x="283" />
<glyph unicode="&#x2008;" horiz-adv-x="212" />
<glyph unicode="&#x2009;" horiz-adv-x="340" />
<glyph unicode="&#x200a;" horiz-adv-x="94" />
<glyph unicode="&#x2010;" horiz-adv-x="737" d="M123 512v96h491v-96h-491z" />
<glyph unicode="&#x2011;" horiz-adv-x="737" d="M123 512v96h491v-96h-491z" />
<glyph unicode="&#x2012;" horiz-adv-x="737" d="M123 512v96h491v-96h-491z" />
<glyph unicode="&#x2013;" horiz-adv-x="1270" d="M123 512v96h1024v-96h-1024z" />
<glyph unicode="&#x2014;" horiz-adv-x="2294" d="M123 512v96h2048v-96h-2048z" />
<glyph unicode="&#x202f;" horiz-adv-x="340" />
<glyph unicode="&#x205f;" horiz-adv-x="425" />
<glyph unicode="&#xe000;" horiz-adv-x="1055" d="M0 0v1055h1055v-1055h-1055z" />
</font>
</defs>
</svg>
