<?xml version="1.0" standalone="no"?>
<!DOCTYPE svg PUBLIC "-//W3C//DTD SVG 1.1//EN" "http://www.w3.org/Graphics/SVG/1.1/DTD/svg11.dtd" >
<svg xmlns="http://www.w3.org/2000/svg">
<metadata></metadata>
<defs>
<font id="moireregular" horiz-adv-x="1389" >
<font-face units-per-em="2048" ascent="1638" descent="-410" />
<missing-glyph horiz-adv-x="532" />
<glyph horiz-adv-x="2048" />
<glyph horiz-adv-x="2048" />
<glyph unicode="&#xd;" horiz-adv-x="0" />
<glyph unicode=" "  horiz-adv-x="532" />
<glyph unicode="&#x09;" horiz-adv-x="532" />
<glyph unicode="&#xa0;" horiz-adv-x="532" />
<glyph unicode="!" horiz-adv-x="510" d="M145 0v240h220v-240h-220zM152 1397v92h204v-92l-24 -965h-154z" />
<glyph unicode="&#x22;" horiz-adv-x="836" d="M152 1395v94h190v-94l-25 -391h-139zM494 1395v94h190v-94l-25 -391h-139z" />
<glyph unicode="#" horiz-adv-x="1358" d="M88 524v119h287l47 303h-275v119h293l66 410h121l-64 -410h299l66 410h121l-64 -410h281v-119h-299l-47 -303h286v-119h-305l-80 -524h-125l82 524h-299l-82 -524h-123l82 524h-268zM498 643h299l47 303h-299z" />
<glyph unicode="$" d="M80 465v14h205v-16q0 -93 19.5 -151.5t61.5 -92t108.5 -45.5t160.5 -12v522l-139 18q-108 14 -183 38.5t-121.5 67.5t-67 108.5t-20.5 162.5q0 209 130 304.5t393 95.5h8v221h106v-221q141 -1 242 -25.5t165 -77.5t94 -137t30 -203v-30h-197v16q-1 85 -19.5 140.5 t-59 88.5t-103.5 47.5t-152 16.5v-465l148 -16q108 -12 185 -36.5t127 -70t73.5 -116t23.5 -173.5q0 -126 -34.5 -210t-102.5 -135t-170 -72t-237 -21h-13v-246h-106v246h-21q-141 0 -242 23.5t-166 78t-95.5 143.5t-30.5 220zM311 1090q0 -59 11.5 -97t37.5 -61.5t68 -35.5 t104 -19l103 -13v451q-83 -2 -144 -13t-101 -36.5t-59.5 -68.5t-19.5 -107zM741 162q85 1 150.5 12t110 40t67.5 79.5t23 130.5q0 61 -10 103t-38 68.5t-76.5 41t-125.5 22.5l-101 11v-508z" />
<glyph unicode="%" horiz-adv-x="1509" d="M106 1133v108q0 63 13.5 110t44 78t80.5 46.5t123 15.5h49q72 0 121.5 -15.5t79.5 -46.5t43.5 -78t13.5 -110v-108q0 -62 -13.5 -108.5t-44 -77.5t-80 -46.5t-120.5 -15.5h-49q-73 0 -123 15.5t-80.5 46.5t-44 77.5t-13.5 108.5zM188 -14l983 1489h134l-975 -1489h-142z M238 1149q0 -37 6 -63t21 -42.5t40 -24t62 -7.5h43q37 0 62.5 7.5t41.5 24t22.5 42.5t6.5 63v78q0 72 -29 103.5t-104 31.5h-43q-74 0 -101.5 -31.5t-27.5 -103.5v-78zM836 238v108q0 62 13 108.5t43 77.5t79.5 46.5t122.5 15.5h49q72 0 121.5 -15.5t80.5 -46.5t44.5 -77.5 t13.5 -108.5v-108q0 -63 -13.5 -109.5t-44.5 -77.5t-80.5 -46t-121.5 -15h-49q-73 0 -122.5 15t-79.5 46t-43 77.5t-13 109.5zM967 252q0 -72 27.5 -103.5t101.5 -31.5h43q75 0 104 31.5t29 103.5v80q0 72 -29 103.5t-104 31.5h-43q-74 0 -101.5 -31.5t-27.5 -103.5v-80z " />
<glyph unicode="&#x26;" horiz-adv-x="1419" d="M117 412v55q0 174 72.5 272t228.5 127q-32 33 -59 67.5t-46.5 72.5t-31 80.5t-11.5 91.5q0 93 31 156t87 101.5t135 55t175 16.5q119 0 200 -20t131.5 -60.5t74.5 -100.5t29 -140h-189q-5 41 -17 72t-38.5 52t-69 31.5t-106.5 10.5h-31q-49 0 -89 -8t-68.5 -27.5 t-44 -52.5t-15.5 -84q0 -42 11 -77t30 -67t45 -62.5t57 -64.5l451 -503q8 21 13 45.5t13 50.5l62 264h180l-80 -334q-12 -48 -27.5 -88.5t-35.5 -77.5l239 -266h-225l-125 135q-38 -41 -80 -69.5t-92.5 -46t-112 -25.5t-137.5 -8h-67q-118 0 -205.5 24t-145.5 76t-87 132.5 t-29 193.5zM319 430q0 -78 16.5 -133t51 -89.5t88.5 -50.5t129 -16h90q99 0 162 29t107 86l-439 489q-57 -5 -96.5 -24t-63.5 -52t-34.5 -81.5t-10.5 -112.5v-45z" />
<glyph unicode="'" horiz-adv-x="494" d="M152 1395v94h190v-94l-25 -391h-139z" />
<glyph unicode="(" horiz-adv-x="778" d="M242 -16v999q0 97 6 181t24.5 152.5t52.5 122t90.5 89.5t139 55t197.5 19v-156q-92 -1 -151.5 -26.5t-94 -72.5t-47.5 -113.5t-13 -148.5v-1087q0 -81 13 -147.5t47 -113.5t93.5 -72.5t152.5 -26.5v-156q-154 0 -253 33.5t-156 97.5t-79 157.5t-22 213.5z" />
<glyph unicode=")" horiz-adv-x="778" d="M27 -362q92 1 151 26.5t93.5 72t47.5 113t13 148.5v1087q0 82 -13 148t-47 113.5t-93 73t-152 26.5v156q153 0 251.5 -33.5t156 -97.5t80 -157t22.5 -212v-1002q0 -97 -6 -180.5t-25 -152.5t-53 -122t-91 -89t-139 -55t-196 -19v156z" />
<glyph unicode="*" horiz-adv-x="731" d="M61 1245l45 113l216 -96l-19 227h125l-16 -227l213 96l45 -113l-236 -65l166 -199l-102 -68l-131 205l-134 -205l-102 68l166 199z" />
<glyph unicode="+" horiz-adv-x="1253" d="M117 508v156h430v430h158v-430h432v-156h-432v-432h-158v432h-430z" />
<glyph unicode="," horiz-adv-x="510" d="M145 0v240h220v-211l-86 -291h-113l76 262h-97z" />
<glyph unicode="-" horiz-adv-x="770" d="M117 483v154h536v-154h-536z" />
<glyph unicode="." horiz-adv-x="510" d="M145 0v240h220v-240h-220z" />
<glyph unicode="/" horiz-adv-x="748" d="M0 -14l586 1503h162l-582 -1503h-166z" />
<glyph unicode="0" d="M117 442v596q0 108 24.5 192t78.5 141.5t140.5 87.5t210.5 30h242q125 0 212.5 -30t142 -87.5t79.5 -141.5t25 -192v-596q0 -111 -25 -196.5t-79.5 -143t-142 -87t-212.5 -29.5h-235q-125 0 -212.5 29t-142.5 86.5t-80.5 143t-25.5 197.5zM319 553q0 -108 8 -183 t35.5 -121.5t80 -67.5t141.5 -21h219q76 0 127 16t82 52t44 93.5t13 141.5v547q0 84 -13 141.5t-44 93.5t-82 52t-127 16h-219q-75 0 -126 -16t-82 -52t-44 -94.5t-13 -142.5v-455z" />
<glyph unicode="1" d="M160 0v168h465v1094l-344 -258l-99 129l469 342h174v-1307h404v-168h-1069z" />
<glyph unicode="2" d="M104 0v266q0 109 23.5 184.5t75.5 128.5t135.5 88t204.5 64l276 66q68 16 114 38t74 55.5t40 80.5t12 114q0 77 -21 125.5t-65.5 76.5t-114 38t-166.5 10h-16q-97 0 -163 -10.5t-107.5 -36.5t-62 -71t-26.5 -115h-196q4 106 37 179.5t98 119.5t164.5 67t236.5 21h58 q139 0 242 -21t171 -68t102 -123t34 -185q0 -103 -21 -177.5t-69 -128t-126.5 -90t-193.5 -63.5l-262 -60q-83 -19 -138 -41t-88 -54.5t-47 -78t-14 -112.5v-119h973v-168h-1174z" />
<glyph unicode="3" d="M98 375h199q4 -78 26.5 -124.5t64 -71t103 -31.5t142.5 -7h110q88 0 148.5 14.5t98 47.5t54.5 87t17 132q0 87 -18 139t-54 79.5t-90.5 35.5t-126.5 8h-223v156h260q61 0 103.5 12.5t69.5 42.5t39.5 79.5t12.5 123.5q0 79 -21 125.5t-58.5 70.5t-89.5 30.5t-115 6.5h-125 q-81 0 -136.5 -9t-90.5 -33.5t-52.5 -69.5t-21.5 -117h-197q3 111 32.5 185t89 119t149.5 64t214 19h162q108 0 193.5 -17t145.5 -59.5t92 -115t32 -183.5q0 -75 -10.5 -132t-33.5 -98t-61.5 -68t-93.5 -42q65 -18 109 -46.5t70.5 -71t37.5 -101t11 -137.5 q0 -119 -31 -201.5t-94 -133.5t-157 -74t-220 -23h-170q-122 0 -213.5 16.5t-153.5 60t-94.5 119t-34.5 193.5z" />
<glyph unicode="4" d="M68 371v147l806 971h199v-954h232v-164h-232v-371h-194v371h-811zM281 535h598v720z" />
<glyph unicode="5" d="M115 375h198q4 -81 27.5 -127.5t66 -70t104 -30t142.5 -6.5h99q89 0 149.5 17.5t97 56.5t52.5 101t16 151q0 93 -19 151.5t-55.5 91t-89 44.5t-119.5 12h-184q-183 0 -293 -94h-151v803h1073v-168h-897v-469q36 27 75.5 43.5t86 26t102 13t123.5 3.5h104q107 0 190.5 -22 t141 -75t87.5 -141t30 -219q0 -134 -32 -225.5t-95 -148.5t-157 -82t-218 -25h-156q-117 0 -208 15t-155 57.5t-98.5 118.5t-37.5 198z" />
<glyph unicode="6" d="M117 440v584q0 236 117.5 350.5t357.5 114.5h158q130 0 222.5 -18t153 -63t91.5 -120.5t38 -189.5h-190q-7 76 -29.5 121.5t-63.5 70.5t-101.5 33t-141.5 8h-104q-157 0 -233.5 -70.5t-76.5 -230.5v-215q60 51 146.5 77t185.5 26h187q104 0 186.5 -21.5t139.5 -73 t87.5 -138.5t30.5 -218q0 -134 -32.5 -225.5t-96 -148.5t-157 -82t-214.5 -25h-170q-117 0 -208 24t-154 78t-96 140.5t-33 211.5zM315 467q0 -89 16.5 -151t54 -101t97.5 -56.5t146 -17.5h133q86 0 145.5 17.5t96 56.5t53 101t16.5 151q0 94 -19.5 152t-56.5 89t-90.5 41.5 t-120.5 10.5h-157q-59 0 -106.5 -7t-85.5 -19.5t-68 -29.5t-54 -38v-199z" />
<glyph unicode="7" d="M111 1307v168h1169v-148l-733 -1327h-215l735 1307h-956z" />
<glyph unicode="8" d="M109 416q0 80 11 139t37 101.5t70 71t109 46.5q-56 15 -94 42t-61 68t-33.5 98t-10.5 132q0 111 32 183.5t92 115t145.5 59.5t193.5 17h188q108 0 193.5 -17t145.5 -59.5t92 -115t32 -183.5q0 -75 -10.5 -132t-33.5 -98t-61 -68t-93 -42q65 -18 108.5 -46.5t70 -71 t37.5 -101.5t11 -139q0 -119 -31 -201t-94 -133t-157 -73.5t-220 -22.5h-168q-126 0 -220 22.5t-156.5 73.5t-93.5 133t-31 201zM313 422q0 -78 16 -132t53 -87t98 -47.5t151 -14.5h127q90 0 150.5 14.5t97.5 47.5t53 87t16 132q0 83 -16 134t-49 79.5t-82 38.5t-115 10 h-238q-66 0 -115 -10t-82 -38.5t-49 -79.5t-16 -134zM340 1098q0 -74 12.5 -123.5t39.5 -79.5t69.5 -42.5t103.5 -12.5h258q61 0 104 12.5t70 42.5t39.5 79.5t12.5 123.5q0 79 -21 125.5t-59 70.5t-90.5 30.5t-114.5 6.5h-139q-62 0 -114.5 -6.5t-90.5 -30.5t-59 -70.5 t-21 -125.5z" />
<glyph unicode="9" d="M109 375h198q4 -76 25 -122t60.5 -71t98.5 -33t140 -8h137q79 0 136.5 17.5t95 55t55.5 96t18 141.5v208q-60 -51 -147.5 -76.5t-186.5 -25.5h-184q-105 0 -187.5 20t-140 71t-88 137.5t-30.5 218.5q0 133 32.5 225t95.5 150t156 84t215 26h174q123 0 215 -26t153 -85 t91.5 -155t30.5 -236v-530q0 -242 -118 -356.5t-363 -114.5h-183q-130 0 -222.5 18.5t-153 63.5t-90 120t-33.5 187zM315 1008q0 -95 19.5 -152.5t56.5 -89.5t90 -42.5t121 -10.5h123q58 0 107.5 4.5t92.5 15t79.5 28.5t68.5 46v201q0 89 -16.5 150.5t-54 100t-97 55.5 t-145.5 17h-133q-87 0 -146.5 -17t-96.5 -55.5t-53 -100t-16 -150.5z" />
<glyph unicode=":" horiz-adv-x="510" d="M145 0v240h220v-240h-220zM145 645v240h220v-240h-220z" />
<glyph unicode=";" horiz-adv-x="510" d="M145 0v240h220v-211l-86 -291h-113l76 262h-97zM145 645v240h220v-240h-220z" />
<glyph unicode="&#x3c;" horiz-adv-x="1253" d="M117 518v135l1020 451v-160l-822 -356l822 -359v-163z" />
<glyph unicode="=" horiz-adv-x="1253" d="M117 293v156h1020v-156h-1020zM117 723v156h1020v-156h-1020z" />
<glyph unicode="&#x3e;" horiz-adv-x="1253" d="M117 66v159l821 357l-821 358v164l1020 -451v-135z" />
<glyph unicode="?" horiz-adv-x="1237" d="M98 1098q6 113 34 191t87 126.5t152 70t229 21.5h51q226 0 344.5 -92t118.5 -295v-22q0 -79 -14.5 -138.5t-46.5 -105.5t-83.5 -83t-125.5 -71q-62 -28 -101 -49t-61 -45.5t-29.5 -59t-7.5 -89.5v-25h-182v25q0 76 8 128.5t33.5 93t74.5 73.5t130 71q54 25 93 47.5 t63.5 52.5t36 73t11.5 110q0 73 -18 120.5t-55 76t-93.5 40t-134.5 11.5q-92 0 -152.5 -12t-97 -41.5t-52.5 -79t-19 -123.5h-193zM446 0v240h220v-240h-220z" />
<glyph unicode="@" horiz-adv-x="1645" d="M117 459v282q0 155 46.5 278t131.5 208.5t203 130.5t262 45h219q126 0 227.5 -36.5t173 -104.5t110 -164t38.5 -215v-248q0 -105 -28 -177.5t-78 -117.5t-119 -65.5t-152 -20.5h-127v152q-45 -79 -107 -118.5t-155 -39.5q-147 0 -218 69t-71 211v138q0 86 24.5 158 t73 123.5t120.5 80.5t167 29h293v-692h12q51 0 96 12t78.5 42.5t53.5 82t20 129.5v256q0 92 -30 167t-87 128t-138 81.5t-183 28.5h-207q-119 0 -216.5 -38t-167.5 -109t-108 -172t-38 -228v-282q0 -92 21 -161t58.5 -119t88 -83t109 -52.5t122.5 -27.5t129 -8h407v-110 h-446q-77 0 -152 13t-142.5 41t-125 71.5t-99.5 105.5t-65.5 143t-23.5 183zM610 545q0 -93 38.5 -135.5t113.5 -42.5q51 0 97.5 14t81 42t55 70.5t20.5 98.5v346h-144q-133 0 -197.5 -70.5t-64.5 -203.5v-119z" />
<glyph unicode="A" horiz-adv-x="1442" d="M-4 0l557 1489h338l555 -1489h-223l-142 381h-721l-141 -381h-223zM418 557h604l-270 760h-62z" />
<glyph unicode="B" horiz-adv-x="1507" d="M176 0v1489h766q100 0 177.5 -16t130.5 -57.5t80.5 -113.5t27.5 -184q0 -75 -8.5 -133t-29.5 -100.5t-57.5 -70t-91.5 -42.5q66 -17 109 -44t68.5 -69.5t36 -102t10.5 -140.5q0 -119 -25 -199t-78 -128t-136.5 -68.5t-201.5 -20.5h-778zM385 168h526q83 0 136 13.5t83 45 t41 83t11 128.5q0 85 -13 133.5t-42.5 73t-78 31t-118.5 6.5h-545v-514zM385 848h555q65 0 105.5 12t62.5 41t29.5 76.5t7.5 118.5q0 75 -14.5 119.5t-45.5 68t-80 30.5t-118 7h-502v-473z" />
<glyph unicode="C" horiz-adv-x="1526" d="M129 504v479q0 144 32 244t100.5 162.5t174.5 90t254 27.5h156q150 0 256 -26t174 -82t99.5 -144.5t31.5 -212.5v-47h-211v25q-1 94 -23.5 153.5t-70 92.5t-122.5 45t-181 12h-60q-107 0 -182 -14.5t-123 -55.5t-70 -115.5t-22 -195.5v-399q0 -119 22 -193.5t70.5 -115.5 t125 -55.5t185.5 -14.5h56q105 0 180 11.5t122.5 45t70 94t22.5 158.5v35h213v-45q0 -132 -32.5 -223.5t-101 -149t-175 -83t-254.5 -25.5h-156q-148 0 -254 27.5t-174.5 89.5t-100.5 161.5t-32 243.5z" />
<glyph unicode="D" horiz-adv-x="1591" d="M176 0v1489h725q150 0 256.5 -27t174.5 -88.5t100 -161.5t32 -245v-457q0 -144 -32.5 -241.5t-101 -157t-175 -85.5t-254.5 -26h-725zM385 182h494q100 0 170 14t114 54t64 112t20 187v379q0 120 -21.5 193.5t-69.5 114.5t-124.5 55t-187.5 14h-459v-1123z" />
<glyph unicode="E" horiz-adv-x="1386" d="M176 0v1489h1081v-184h-872v-455h848v-182h-848v-484h872v-184h-1081z" />
<glyph unicode="F" horiz-adv-x="1372" d="M176 0v1489h1081v-184h-872v-463h848v-185h-848v-657h-209z" />
<glyph unicode="G" horiz-adv-x="1591" d="M129 504v479q0 144 32 244t100.5 162.5t174.5 90t254 27.5h203q150 0 256 -23.5t173.5 -73.5t98.5 -128.5t31 -187.5v-29h-213v8q0 78 -22 126.5t-69 76t-121.5 37.5t-180.5 10h-107q-82 0 -143.5 -7.5t-105.5 -26t-72.5 -51.5t-45.5 -84.5t-23.5 -123t-6.5 -168.5v-319 q0 -119 22 -193.5t70.5 -115.5t125 -55.5t185.5 -14.5h115q105 0 179 11.5t121 45t69 94t22 158.5v86h-389v182h604v-188v-65t-2 -64q-5 -122 -40 -206.5t-104 -137t-173 -75.5t-246 -23h-211q-148 0 -254 27.5t-174.5 89.5t-100.5 161.5t-32 243.5z" />
<glyph unicode="H" horiz-adv-x="1614" d="M176 0v1489h209v-633h844v633h209v-1489h-209v674h-844v-674h-209z" />
<glyph unicode="I" horiz-adv-x="561" d="M176 0v1489h209v-1489h-209z" />
<glyph unicode="J" horiz-adv-x="1376" d="M115 508h213v-21q0 -84 18.5 -145t59 -100.5t104.5 -58.5t156 -19q81 0 144.5 14.5t107 52.5t66 104.5t22.5 170.5v983h211v-993q0 -143 -31 -241t-95 -159t-163 -87.5t-234 -26.5h-61q-136 0 -234 27.5t-161 89.5t-93 162.5t-30 246.5z" />
<glyph unicode="K" horiz-adv-x="1501" d="M176 0v1489h209v-637h188l594 637h263l-678 -717l749 -772h-270l-662 678h-184v-678h-209z" />
<glyph unicode="L" horiz-adv-x="1382" d="M176 0v1489h209v-1305h901v-184h-1110z" />
<glyph unicode="M" horiz-adv-x="2009" d="M176 0v1489h318l512 -1243l516 1243h311v-1489h-199v1266l-526 -1266h-207l-524 1266v-1266h-201z" />
<glyph unicode="N" horiz-adv-x="1653" d="M176 0v1489h252l850 -1219v1219h201v-1489h-252l-850 1221v-1221h-201z" />
<glyph unicode="O" horiz-adv-x="1577" d="M129 504v481q0 144 32 243.5t100.5 161.5t174.5 89.5t254 27.5h197q150 0 256.5 -27t174.5 -88.5t100 -161.5t32 -245v-481q0 -144 -32.5 -243.5t-101 -161.5t-175 -89.5t-254.5 -27.5h-197q-148 0 -254 27.5t-174.5 89.5t-100.5 161.5t-32 243.5zM342 543 q0 -119 22 -193.5t70.5 -115.5t125 -55.5t185.5 -14.5h84q110 0 187 14t125 55.5t70 115.5t22 194v403q0 120 -21.5 194t-69.5 114.5t-125 54.5t-188 14h-84q-109 0 -185.5 -14t-125 -55.5t-70.5 -115.5t-22 -194v-401z" />
<glyph unicode="P" horiz-adv-x="1497" d="M176 0v1489h778q117 0 199 -24.5t133 -78t74.5 -138t23.5 -204.5q0 -123 -28 -206.5t-83 -134t-135 -72t-184 -21.5h-569v-610h-209zM385 778h530q70 0 118.5 12.5t78.5 42.5t43.5 80.5t13.5 126.5q0 75 -10.5 128t-39 87t-78.5 50t-130 16h-526v-543z" />
<glyph unicode="Q" horiz-adv-x="1577" d="M129 504v481q0 144 32 243.5t100.5 161.5t174.5 89.5t254 27.5h197q150 0 256.5 -27t174.5 -88.5t100 -161.5t32 -245v-481q0 -80 -10 -146t-32.5 -119t-59.5 -94t-91 -71l252 -250h-241l-168 178q-47 -9 -100 -14.5t-113 -5.5h-197q-148 0 -254 27.5t-174.5 89.5 t-100.5 161.5t-32 243.5zM342 543q0 -119 22 -195t70.5 -119t125 -59t185.5 -16h207l-188 200h209l153 -151q28 21 48.5 47.5t33.5 62.5t19 82.5t6 106.5v444q0 120 -21.5 194t-69.5 114.5t-125 54.5t-188 14h-84q-109 0 -185.5 -14t-125 -55.5t-70.5 -115.5t-22 -194v-401z " />
<glyph unicode="R" horiz-adv-x="1516" d="M176 0v1489h776q105 0 182.5 -20.5t129 -68.5t77 -127.5t25.5 -197.5q0 -81 -9.5 -142.5t-31 -106t-57.5 -73.5t-90 -44q62 -16 101 -43t61.5 -68t31 -98t8.5 -133v-367h-213v367q0 93 -17 145t-55.5 77t-100.5 30.5t-152 5.5h-457v-625h-209zM385 793h561q66 0 106.5 15 t62 47.5t29 84.5t7.5 127q0 81 -14 131t-45 77.5t-80 36.5t-119 9h-508v-528z" />
<glyph unicode="S" horiz-adv-x="1516" d="M115 463v14h213v-16q0 -98 22 -158t69 -94t122 -45.5t180 -11.5h82q100 0 171.5 12.5t117.5 44t67 85.5t21 138q0 65 -15 104.5t-47 63t-81.5 35t-118.5 20.5l-361 47q-117 15 -196 41.5t-127.5 72t-69.5 114.5t-21 170q0 107 32.5 184t99.5 126.5t170.5 73t244.5 23.5 h117q150 0 256 -24t174 -78t99.5 -140.5t31.5 -211.5h-213q-2 86 -25.5 140.5t-71.5 86t-121.5 43.5t-176.5 12q-107 0 -183.5 -8.5t-125.5 -33.5t-72 -70.5t-23 -118.5q0 -62 13 -100.5t43 -61.5t78.5 -35.5t119.5 -21.5l361 -47q114 -15 195.5 -40t133.5 -71t76.5 -117 t24.5 -178q0 -128 -37 -214.5t-109 -139t-177.5 -74.5t-241.5 -22h-160q-152 0 -258.5 24t-173.5 80t-98 148t-31 229z" />
<glyph unicode="T" horiz-adv-x="1298" d="M16 1305v184h1266v-184h-528v-1305h-211v1305h-527z" />
<glyph unicode="U" horiz-adv-x="1593" d="M160 508v981h211v-983q0 -92 21 -157t66 -106t116.5 -60t173.5 -19h98q87 0 157 13t119 50.5t75 104t26 174.5v983h211v-981q0 -143 -31.5 -243t-99.5 -163t-175 -91.5t-258 -28.5h-147q-150 0 -257 28.5t-175 91.5t-99.5 163t-31.5 243z" />
<glyph unicode="V" horiz-adv-x="1391" d="M-2 1489h219l481 -1280l471 1280h224l-574 -1489h-248z" />
<glyph unicode="W" horiz-adv-x="2071" d="M14 1489h209l379 -1262l303 1262h260l305 -1262l379 1262h207l-467 -1489h-246l-309 1292l-307 -1292h-246z" />
<glyph unicode="X" horiz-adv-x="1421" d="M27 0l548 743l-524 746h246l414 -610l413 610h240l-518 -741l551 -748h-252l-434 608l-441 -608h-243z" />
<glyph unicode="Y" horiz-adv-x="1413" d="M2 1489h234l473 -748l465 748h237l-600 -926v-563h-209v559z" />
<glyph unicode="Z" horiz-adv-x="1452" d="M94 0v164l961 1143h-922v182h1196v-164l-964 -1143h983v-182h-1254z" />
<glyph unicode="[" horiz-adv-x="778" d="M242 -508v2091h510v-153h-306v-1784h306v-154h-510z" />
<glyph unicode="\" horiz-adv-x="748" d="M0 1489h162l586 -1503h-166z" />
<glyph unicode="]" horiz-adv-x="778" d="M27 -354h305v1784h-305v153h510v-2091h-510v154z" />
<glyph unicode="^" horiz-adv-x="1180" d="M96 723l412 766h162l413 -766h-172l-321 614l-324 -614h-170z" />
<glyph unicode="_" horiz-adv-x="1024" d="M14 -96h996v-121h-996v121z" />
<glyph unicode="`" horiz-adv-x="512" d="M61 1509h195l164 -301h-139z" />
<glyph unicode="a" horiz-adv-x="1210" d="M84 297q0 79 20.5 139t69.5 100t130 60t202 20h356v64q0 65 -9.5 111t-36 74.5t-73 41.5t-120.5 13h-68q-75 0 -119.5 -14t-69 -36.5t-34 -51.5t-13.5 -60h-188q5 67 25 123.5t69 97.5t134.5 64.5t220.5 23.5h55q117 0 199 -20t133.5 -65.5t74.5 -119.5t23 -182v-680 h-191v160q-21 -39 -51 -71.5t-75 -55t-106.5 -35t-145.5 -12.5q-113 0 -191.5 20t-127.5 59t-71 97t-22 135zM287 311q0 -49 11 -82.5t38.5 -54.5t74.5 -30t119 -9q92 0 155.5 16.5t102.5 46.5t56.5 71.5t17.5 92.5v113h-270q-89 0 -147.5 -5.5t-93.5 -22.5t-49.5 -49.5 t-14.5 -86.5z" />
<glyph unicode="b" horiz-adv-x="1264" d="M156 0v1489h202v-434q0 -17 -0.5 -40t-1.5 -48t-2 -49.5t-2 -43.5q56 100 148.5 146.5t228.5 46.5q114 0 193.5 -30.5t129.5 -86t72.5 -135t22.5 -176.5v-221q0 -109 -22.5 -190t-72.5 -135t-129.5 -80.5t-193.5 -26.5q-75 0 -133.5 11t-104 34t-80 57.5t-59.5 81.5v-170 h-196zM356 434q0 -154 80 -223.5t226 -69.5h24q74 0 123.5 16.5t79.5 52t42.5 90.5t12.5 132v186q0 77 -12.5 132t-42.5 90.5t-79.5 52t-123.5 16.5h-20q-72 0 -129 -16.5t-97.5 -51t-62 -87t-21.5 -125.5v-195z" />
<glyph unicode="c" horiz-adv-x="1198" d="M117 412v229q0 108 24.5 188t78 133t139 79t208.5 26h64q125 0 211.5 -23t140 -68.5t77 -115t23.5 -162.5v-10h-202q0 60 -10.5 102t-39 68.5t-78.5 38.5t-130 12h-48q-73 0 -122 -15.5t-79 -49.5t-42.5 -88t-12.5 -131v-201q0 -76 12.5 -130t42 -88t78.5 -49.5 t123 -15.5h48q80 0 130 11.5t78.5 37t39 65.5t10.5 97h202v-14q0 -89 -24 -155.5t-78 -110t-140 -65t-210 -21.5h-64q-123 0 -208.5 26t-139 79t-78 133t-24.5 188z" />
<glyph unicode="d" horiz-adv-x="1264" d="M117 418v221q0 97 22.5 176.5t72.5 135t129.5 86t193.5 30.5q136 0 228.5 -46.5t147.5 -146.5q-1 19 -2 43.5t-2 49.5t-1.5 48t-0.5 40v434h203v-1489h-197v170q-50 -94 -139 -139t-237 -45q-114 0 -193.5 26.5t-129.5 80.5t-72.5 135t-22.5 190zM319 432q0 -77 13 -132 t43 -90.5t79.5 -52t123.5 -16.5h24q146 0 225.5 69.5t79.5 223.5v195q0 73 -21.5 125.5t-61.5 87t-97.5 51t-128.5 16.5h-20q-74 0 -123.5 -16.5t-79.5 -52t-43 -90.5t-13 -132v-186z" />
<glyph unicode="e" horiz-adv-x="1200" d="M117 414v225q0 108 23.5 188t77.5 133.5t142.5 80t217.5 26.5h43q129 0 217.5 -23t142.5 -68t78 -110.5t24 -150.5v-228h-764v-73q0 -78 10.5 -131t38.5 -86t77.5 -47.5t127.5 -14.5h54q76 0 125.5 9t78 31t40.5 58t14 89h198q-3 -86 -28 -149.5t-79.5 -105t-142.5 -61.5 t-217 -20h-38q-130 0 -218.5 26.5t-142.5 80t-77 133.5t-23 188zM319 629h562v86q0 55 -10.5 94t-38.5 63.5t-77.5 36t-127.5 11.5h-54q-79 0 -128.5 -15.5t-77.5 -49t-38 -87t-10 -129.5v-10z" />
<glyph unicode="f" horiz-adv-x="702" d="M2 897v156h172v28q0 73 5 133.5t19.5 108t41.5 82.5t71.5 58t108.5 34.5t153 11.5h97v-155h-76q-77 0 -120.5 -16t-65 -50t-26.5 -88t-5 -129v-18h274v-156h-274v-897h-203v897h-172z" />
<glyph unicode="g" horiz-adv-x="1264" d="M117 428v207q0 113 24.5 194t75.5 133.5t129.5 77.5t185.5 25q61 0 116.5 -8t103.5 -29t88 -58.5t71 -95.5v179h197v-1039q0 -108 -24.5 -189.5t-81 -135.5t-149 -81.5t-228.5 -27.5h-60q-119 0 -198.5 21.5t-130 61t-75.5 94t-34 120.5h199q10 -35 24.5 -62.5 t43.5 -46.5t77 -28.5t123 -9.5q89 0 149 11.5t96.5 43t52 87t15.5 142.5v172q-27 -50 -66.5 -85t-86.5 -57.5t-101.5 -33t-111.5 -10.5q-102 0 -181 24.5t-133 76t-82 132.5t-28 195zM319 446q0 -77 13 -131.5t43 -89t79.5 -51t123.5 -16.5h24q146 0 225.5 69.5t79.5 221.5 v180q0 73 -22 126t-62 87.5t-97.5 50.5t-127.5 16h-20q-74 0 -123.5 -16.5t-79.5 -52t-43 -90.5t-13 -132v-172z" />
<glyph unicode="h" horiz-adv-x="1255" d="M156 0v1489h202v-430q0 -23 -0.5 -48t-1.5 -49.5t-2 -47.5t-2 -42q26 54 66.5 91t91 60.5t110.5 33.5t125 10q85 0 152 -23t114 -70.5t72 -120.5t25 -173v-680h-201v641q0 72 -14.5 123t-44 83.5t-75 47t-107.5 14.5q-152 0 -231 -71t-79 -222v-616h-200z" />
<glyph unicode="i" horiz-adv-x="512" d="M156 0v1053h202v-1053h-202zM156 1286v203h202v-203h-202z" />
<glyph unicode="j" horiz-adv-x="512" d="M-6 -250h8q44 0 73.5 8.5t47.5 33t25.5 68t7.5 113.5v1080h202v-1096q0 -92 -13.5 -160.5t-50 -114t-100.5 -68t-165 -22.5h-35v158zM156 1286v203h202v-203h-202z" />
<glyph unicode="k" horiz-adv-x="1116" d="M156 0v1489h200v-852h76l387 416h230l-449 -480l498 -573h-236l-440 504h-66v-504h-200z" />
<glyph unicode="l" horiz-adv-x="512" d="M156 0v1489h202v-1489h-202z" />
<glyph unicode="m" horiz-adv-x="1855" d="M156 0v1053h188v-183q22 48 52.5 85t71 62t93 37.5t119.5 12.5q126 0 207.5 -50.5t122.5 -164.5q23 51 52 91t70 67.5t96 42t130 14.5q84 0 149 -22.5t109.5 -69.5t68 -119t23.5 -170v-686h-201v641q0 72 -13.5 122t-40.5 81t-67.5 45t-95.5 14q-51 0 -97.5 -17 t-82 -51.5t-57 -87t-21.5 -124.5v-623h-201v641q0 72 -13.5 122t-40.5 81t-67.5 45t-95.5 14q-51 0 -98 -16.5t-82.5 -51.5t-56.5 -89.5t-21 -129.5v-616h-200z" />
<glyph unicode="n" horiz-adv-x="1255" d="M156 0v1053h196v-181q26 54 66.5 91t91 60.5t110.5 33.5t125 10q85 0 152 -23t114 -70.5t72 -120.5t25 -173v-680h-201v641q0 72 -14.5 123t-44 83.5t-75 47t-107.5 14.5q-152 0 -231 -71t-79 -222v-616h-200z" />
<glyph unicode="o" horiz-adv-x="1227" d="M117 412v229q0 108 24.5 188t78 133t139 79t208.5 26h90q123 0 209 -26t140.5 -79t79 -133t24.5 -188v-229q0 -108 -24.5 -188t-79 -133t-140.5 -79t-209 -26h-90q-123 0 -208.5 26t-139 79t-78 133t-24.5 188zM319 436q0 -80 12 -136t41 -91.5t78.5 -51.5t124.5 -16h74 q74 0 123.5 15.5t79.5 49t42.5 87.5t12.5 131v190q0 81 -12 137t-41.5 91t-79.5 51t-125 16h-74q-73 0 -122 -15.5t-79 -49t-42.5 -87.5t-12.5 -130v-191z" />
<glyph unicode="p" horiz-adv-x="1264" d="M156 -403v1456h196v-170q25 47 59.5 81.5t80 57.5t104 34t133.5 11q114 0 193.5 -26.5t129.5 -80.5t72.5 -135t22.5 -190v-221q0 -98 -22.5 -177t-72.5 -134.5t-129.5 -86t-193.5 -30.5q-136 0 -228.5 46.5t-148.5 145.5q1 -19 2 -43.5l2 -49t1.5 -47.5t0.5 -40v-401 h-202zM356 424q0 -73 21.5 -126t62 -87.5t97.5 -51t129 -16.5h20q74 0 123.5 16.5t79.5 52t42.5 90.5t12.5 132v187q0 76 -12.5 131t-42.5 90.5t-79.5 52t-123.5 16.5h-24q-146 0 -226 -69.5t-80 -223.5v-194z" />
<glyph unicode="q" horiz-adv-x="1264" d="M117 414v221q0 109 22.5 190t72.5 135t129.5 80.5t193.5 26.5q148 0 237 -45t139 -139v170h197v-1456h-203v401q0 17 0.5 40t1.5 47.5l2 49t2 43.5q-55 -99 -147.5 -145.5t-228.5 -46.5q-114 0 -193.5 30.5t-129.5 86t-72.5 134.5t-22.5 177zM319 434q0 -77 13 -132 t43 -90.5t79.5 -52t123.5 -16.5h20q71 0 128.5 16.5t97.5 51t61.5 87.5t21.5 126v194q0 154 -79.5 223.5t-225.5 69.5h-24q-74 0 -123.5 -16.5t-79.5 -52t-43 -90.5t-13 -131v-187z" />
<glyph unicode="r" horiz-adv-x="1085" d="M156 0v1053h192v-181q17 42 43.5 77.5t64 61.5t86 41t109.5 15q171 0 256.5 -87t85.5 -267v-25h-202v12q0 99 -46 151t-145 52h-25q-50 0 -90.5 -23t-69 -64t-44 -98.5t-15.5 -127.5v-590h-200z" />
<glyph unicode="s" horiz-adv-x="1169" d="M98 315h199q1 -50 14.5 -84.5t44 -55.5t80 -30.5t123.5 -9.5h37q76 0 126 10t79 31t41 52.5t12 74.5t-11 68.5t-42 41t-87 24.5t-145 20l-69 8q-107 12 -180 31t-118 52t-65 84t-20 126q0 73 23.5 130t77.5 97t142.5 61t219.5 21q125 0 209 -19t136.5 -57t77.5 -95 t31 -134h-192q-5 42 -21 71.5t-47.5 48.5t-81 27.5t-121.5 8.5q-76 0 -125.5 -8t-79 -25.5t-41.5 -46t-12 -70.5t10 -67t37 -39.5t74 -22.5t121 -16l86 -11q118 -14 197.5 -32.5t127.5 -51.5t68.5 -84t20.5 -129q0 -80 -22.5 -141.5t-77 -103t-145 -63t-226.5 -21.5t-228 19 t-148 59t-81.5 102t-28.5 149z" />
<glyph unicode="t" horiz-adv-x="711" d="M2 897v156h172v223h201v-223h284v-156h-284v-485q0 -79 8 -130.5t31.5 -82t67.5 -42.5t116 -12h55v-155h-110q-124 0 -197 23t-111.5 71.5t-49.5 124t-11 180.5v508h-172z" />
<glyph unicode="u" horiz-adv-x="1255" d="M147 373v680h201v-641q0 -72 14.5 -123.5t44.5 -83.5t75.5 -47t107.5 -15q153 0 231 71t78 222v617h201v-1053h-197v180q-26 -54 -66 -91t-91 -60t-111 -33t-125 -10q-84 0 -151.5 23t-114.5 70.5t-72 120.5t-25 173z" />
<glyph unicode="v" horiz-adv-x="1133" d="M6 1053h205l223 -549l135 -348l133 348l222 549h202l-446 -1053h-227z" />
<glyph unicode="w" horiz-adv-x="1690" d="M16 1053h199l170 -543l104 -354l263 897h196l264 -897l103 352l170 545h188l-350 -1053h-229l-248 848l-248 -848h-229z" />
<glyph unicode="x" horiz-adv-x="1102" d="M27 0l387 535l-369 518h215l293 -435l295 435h211l-367 -516l385 -537h-223l-303 446l-311 -446h-213z" />
<glyph unicode="y" horiz-adv-x="1133" d="M6 1053h205l229 -551l135 -340l138 368l211 523h202l-469 -1106q-49 -115 -91 -185t-88.5 -107.5t-103.5 -50t-138 -12.5h-62v156h25q48 0 82 8.5t61 29t49 55.5t45 89l31 72z" />
<glyph unicode="z" horiz-adv-x="1069" d="M70 0v129l641 768h-609v156h877v-129l-647 -768h661v-156h-923z" />
<glyph unicode="{" horiz-adv-x="778" d="M47 477v135q64 10 105.5 32.5t66 58.5t34 87t9.5 119v181v53.5t2 52.5q6 130 44 210t99 123.5t139.5 58t166.5 14.5h39v-154q-77 0 -131.5 -17t-89 -55.5t-50.5 -101.5t-16 -154v-78q0 -103 -4 -183t-21 -140.5t-52 -102.5t-97 -69q56 -23 90 -61.5t53 -92.5t25 -124 t6 -156v-156q0 -87 17.5 -147.5t53 -97.5t89.5 -53.5t127 -16.5v-154h-39q-109 0 -193 19.5t-141.5 75t-87 156t-29.5 261.5v182q0 67 -9.5 118t-34 87t-66 58t-105.5 32z" />
<glyph unicode="|" horiz-adv-x="506" d="M176 -403v1986h156v-1986h-156z" />
<glyph unicode="}" horiz-adv-x="778" d="M27 -358q76 0 130.5 17t89 55.5t50.5 101t16 153.5v78q0 103 4 184t21 141.5t52 102.5t97 68q-63 27 -98 70.5t-52 105t-20.5 142t-3.5 181.5v78q0 92 -16.5 155t-51.5 101.5t-89 55t-129 16.5v154h39q109 0 193 -20t141 -75.5t86.5 -156t29.5 -260.5v-181 q0 -68 9.5 -119t34 -87t66 -58.5t105.5 -32.5v-135q-64 -10 -105.5 -32t-66 -58t-34 -87t-9.5 -118v-182v-54.5t-2 -51.5q-6 -131 -44 -210.5t-98.5 -123t-139.5 -58t-166 -14.5h-39v154z" />
<glyph unicode="~" horiz-adv-x="1253" d="M117 449v174q45 43 111 72.5t159 29.5q70 0 131 -19t118 -41.5t114 -41.5t120 -19q45 0 83.5 10.5t71 27.5t60 40t52.5 47v-166q-22 -21 -48.5 -40.5t-59 -34t-71.5 -23t-86 -8.5q-71 0 -133 18.5t-119.5 40.5t-115 40.5t-119.5 18.5q-84 0 -152 -36t-116 -90z" />
<glyph unicode="&#xad;" horiz-adv-x="770" d="M117 483v154h536v-154h-536z" />
<glyph unicode="&#x2000;" horiz-adv-x="850" />
<glyph unicode="&#x2001;" horiz-adv-x="1700" />
<glyph unicode="&#x2002;" horiz-adv-x="850" />
<glyph unicode="&#x2003;" horiz-adv-x="1700" />
<glyph unicode="&#x2004;" horiz-adv-x="566" />
<glyph unicode="&#x2005;" horiz-adv-x="425" />
<glyph unicode="&#x2006;" horiz-adv-x="283" />
<glyph unicode="&#x2007;" horiz-adv-x="283" />
<glyph unicode="&#x2008;" horiz-adv-x="212" />
<glyph unicode="&#x2009;" horiz-adv-x="340" />
<glyph unicode="&#x200a;" horiz-adv-x="94" />
<glyph unicode="&#x2010;" horiz-adv-x="770" d="M117 483v154h536v-154h-536z" />
<glyph unicode="&#x2011;" horiz-adv-x="770" d="M117 483v154h536v-154h-536z" />
<glyph unicode="&#x2012;" horiz-adv-x="770" d="M117 483v154h536v-154h-536z" />
<glyph unicode="&#x2013;" horiz-adv-x="1258" d="M117 483v154h1024v-154h-1024z" />
<glyph unicode="&#x2014;" horiz-adv-x="2282" d="M117 483v154h2048v-154h-2048z" />
<glyph unicode="&#x202f;" horiz-adv-x="340" />
<glyph unicode="&#x205f;" horiz-adv-x="425" />
<glyph unicode="&#xe000;" horiz-adv-x="1055" d="M0 0v1055h1055v-1055h-1055z" />
</font>
</defs>
</svg>
