<?xml version="1.0" standalone="no"?>
<!DOCTYPE svg PUBLIC "-//W3C//DTD SVG 1.1//EN" "http://www.w3.org/Graphics/SVG/1.1/DTD/svg11.dtd" >
<svg xmlns="http://www.w3.org/2000/svg">
<metadata></metadata>
<defs>
<font id="rondaloregular" horiz-adv-x="1142" >
<font-face units-per-em="2048" ascent="1638" descent="-410" />
<missing-glyph horiz-adv-x="458" />
<glyph unicode="&#xd;" horiz-adv-x="458" />
<glyph unicode=" "  horiz-adv-x="458" />
<glyph unicode="&#x09;" horiz-adv-x="458" />
<glyph unicode="&#xa0;" horiz-adv-x="458" />
<glyph unicode="!" horiz-adv-x="399" d="M98 100q0 51 29 88t80 37q45 0 82 -30.5t37 -75.5q0 -47 -26 -81t-71 -40q-51 -8 -91 22.5t-40 79.5zM117 391v1082h172v-1082h-172z" />
<glyph unicode="&#x22;" horiz-adv-x="753" d="M80 1339q0 51 35 86t88 35q45 0 77.5 -32.5t32.5 -79.5q0 -41 -14 -66l-115 -186h-88l70 92q6 8 10 16q6 12 0 17q-31 23 -61 47q-35 33 -35 71zM444 1339q0 51 35 86t86 35q47 0 80 -32.5t33 -79.5q0 -41 -14 -66l-115 -186h-88l69 92q4 8 9 16q6 12 2 17q-31 23 -62 47 q-35 33 -35 71z" />
<glyph unicode="$" horiz-adv-x="999" d="M90 457l166 -62q0 -47 12.5 -72.5t38.5 -17.5q8 4 18.5 21.5t22.5 56.5l74 213q10 29 20.5 59.5t-0.5 36.5q-152 88 -202 148q-74 86 -74 229t107.5 234.5t263.5 91.5q31 0 69.5 -6.5t73.5 -16.5q8 -4 19.5 23.5t23.5 54.5h170l-203 -563q-4 -14 -6 -23q-8 -29 -8 -41 q0 -16 8 -22q119 -80 182 -170q72 -102 72 -217q0 -51 -14 -101q-39 -147 -166 -239q-115 -84 -246 -84q-20 0 -44 3t-46 11q-6 2 -14 -4q-20 -14 -25 -31l-59 -162h-166l67 201q8 23 12.5 38t4.5 28q0 12 -9 20q-78 70 -110.5 154t-32.5 209zM328 1065q0 -72 52 -134.5 t103 -62.5q14 0 29 11q27 18 35 51l57 176q4 12 9 28.5t1 39.5q-4 33 -30.5 51t-65.5 18q-47 0 -93 -26.5t-81 -83.5q-8 -12 -12 -32t-4 -36zM473 215q0 -23 14 -39q23 -25 58 -24q51 0 113.5 51t91.5 110q8 16 12 41t4 49q0 78 -36 144.5t-85 70.5q-29 4 -47 -24 q-10 -16 -27 -62l-84 -251q-6 -23 -10 -39.5t-4 -26.5z" />
<glyph unicode="%" horiz-adv-x="1257" d="M55 1192q0 111 75 191.5t183 80.5h805l-817 -1464h-147l698 1257q14 27 20.5 43.5t-0.5 28.5q-14 20 -61 21h-121h-55q-33 -4 -25 -23q31 -70 31 -147q0 -127 -89 -212t-214 -85q-121 0 -202 91t-81 218zM184 1188q0 -72 42 -124t112 -58q76 0 135 47t59 116 q0 74 -52 128.5t-124 54.5q-70 0 -121 -47.5t-51 -116.5zM616 274q0 119 86 205t207 86t206 -85t85 -206q0 -123 -85 -212t-206 -89t-207 90t-86 211zM743 264q0 -70 51.5 -117t123.5 -47q66 0 110.5 51.5t44.5 120.5q0 68 -47 117t-117 49q-72 0 -119 -51t-47 -123z" />
<glyph unicode="&#x26;" horiz-adv-x="1314" d="M74 420q0 111 61 217q70 92 139 184q-29 57 -53 115q-31 70 -31 129q0 37 9.5 73t29.5 76q59 109 146.5 163.5t187.5 54.5q98 0 187.5 -51.5t135.5 -137.5t46 -184q0 -141 -90 -250q-35 -41 -88 -68q-92 -45 -95 -55q-6 -23 9 -45q4 -8 32 -41l88 -92q35 -41 56 -55 q35 -27 57 -17q16 8 29 23q14 23 22 35l152 211l133 -89l-158 -245q-23 -35 -28 -47q-12 -25 -13 -54q0 -23 14.5 -44t39.5 -48l174 -182h-228l-80 82q-14 14 -26 31q-18 16 -25 10q-78 -76 -172 -115t-192 -39q-127 0 -233.5 58.5t-168.5 162.5q-33 57 -50 119t-17 115z M262 426q0 -59 19.5 -111.5t67.5 -100.5t102.5 -69.5t111.5 -21.5q86 0 154.5 45t60.5 82q-4 14 -21.5 37.5t-29.5 40.5l-233 254q-20 23 -38.5 43t-45.5 34q-6 4 -21 5q-45 0 -86 -73t-41 -165zM365 1061q-8 -86 49 -160t129 -88q43 -10 125 49q92 66 106 146q4 29 4 45 q0 78 -44 141t-120 78q-25 4 -36 4q-84 0 -148.5 -64.5t-64.5 -150.5z" />
<glyph unicode="'" horiz-adv-x="331" d="M47 1362q0 51 36 85t87 34q45 0 78 -33t33 -80q-1 -38 -15 -65l-114 -185h-89l70 90q4 6 8 13q10 16 2 22q-31 23 -59 47q-37 35 -37 72z" />
<glyph unicode="(" horiz-adv-x="843" d="M49 713q0 350 204 605t542 314v-164q-231 -35 -402.5 -257t-171.5 -498q0 -262 153.5 -468t411.5 -280v-153q-227 0 -469 260q-268 289 -268 641z" />
<glyph unicode=")" horiz-adv-x="864" d="M49 1454v164q338 -59 542 -313t204 -607q0 -354 -267 -641q-242 -260 -471 -260v156q260 74 413 278.5t153 466.5q0 279 -169 499t-405 257z" />
<glyph unicode="*" horiz-adv-x="659" d="M59 1276l58 92l102 -59q29 -14 39 -15q8 0 16 9q7 5 7 38v125h112v-125q0 -33 13 -38q14 -8 43 10l98 61l55 -94l-121 -70q-16 -6 -18 -22q-4 -23 14 -33l125 -65l-55 -86l-107 57q-8 4 -14 8q-16 12 -25 6q-8 -4 -8 -35v-120h-117v122q0 25 -6 31q-14 10 -41 -8 l-112 -66l-56 91l111 63q25 8 25 35q0 20 -29 33z" />
<glyph unicode="," horiz-adv-x="276" d="M18 109q0 51 35 85.5t86 34.5q45 0 78 -32.5t33 -79.5q0 -39 -14 -66l-115 -186h-86l67 92q6 8 11 16q6 14 2 19q-31 23 -62 45q-35 33 -35 72z" />
<glyph unicode="-" horiz-adv-x="565" d="M47 473v121h471v-121h-471z" />
<glyph unicode="." horiz-adv-x="272" d="M16 123q0 53 27 89t80 36q47 0 84 -30t37 -77t-25.5 -80.5t-71.5 -40.5q-51 -8 -91 23t-40 80z" />
<glyph unicode="/" horiz-adv-x="1220" d="M49 -2l983 1466h150l-983 -1466h-150z" />
<glyph unicode="0" horiz-adv-x="1476" d="M49 698q0 287 205 487.5t491 200.5q285 0 487 -205.5t202 -494.5q0 -285 -204 -486.5t-491 -201.5t-488.5 205.5t-201.5 494.5zM211 692q0 -219 156.5 -375.5t377.5 -156.5t379 155.5t158 376.5q0 219 -158 377t-379 158q-219 0 -376.5 -156t-157.5 -379z" />
<glyph unicode="1" horiz-adv-x="540" d="M43 1278v174h395v-1456h-184v1165v39q0 35 -17.5 53.5t-42 21.5t-42.5 3h-109z" />
<glyph unicode="2" horiz-adv-x="976" d="M51 1057q0 180 135.5 291.5t323.5 111.5q178 0 296 -137t118 -328q0 -135 -107 -305q-61 -100 -209 -280q-131 -162 -153 -224q-6 -18 20.5 -27t59.5 -9h352v-150h-809l592 797q78 104 78 239q0 113 -58 178q-67 78 -198 78q-98 0 -184.5 -66.5t-102.5 -168.5h-154z" />
<glyph unicode="3" horiz-adv-x="1011" d="M37 434h170q0 -117 84 -196.5t201 -79.5q125 0 213 90t88 217q0 150 -113 221q-98 63 -295 64v157q176 0 240 62q55 53 55 159q0 70 -56 120t-132 50q-72 0 -123.5 -43t-61.5 -112h-160q0 143 103.5 230t251.5 87q139 0 241.5 -96t102.5 -236q0 -100 -37 -172 q-41 -55 -80 -108q92 -41 160 -131q76 -100 76 -256q0 -195 -139.5 -334t-333.5 -139q-186 0 -320.5 130t-134.5 316z" />
<glyph unicode="4" horiz-adv-x="1087" d="M18 430l902 1032v-997q0 -49 12 -57q10 -8 37 -9h82v-170h-76q-33 0 -39 -10q-8 -12 -8 -41v-182h-191v170q0 31 -7 45t-21.5 16t-40.5 2h-27h-510zM285 430q0 -23 21.5 -30t55.5 -7h48h231q39 0 61.5 5t30.5 30v133v236v34q0 35 -3 53.5t-13 26.5q-14 10 -50 -21.5 t-73 -74.5l-248 -289q-20 -25 -40.5 -55.5t-20.5 -40.5z" />
<glyph unicode="5" horiz-adv-x="1126" d="M49 426l168 -2q0 -82 100 -174q109 -100 228 -100q143 0 242.5 107.5t99.5 258.5q0 137 -95.5 236.5t-222.5 99.5q-100 0 -167.5 -18.5t-129.5 -73.5l-118 61l55 635h637v-180h-277h-48t-46 2q-41 0 -60.5 -3t-29.5 -13q-27 -25 -27 -62l-4 -110q0 -8 -2 -33t-2 -37 q0 -18 4 -25q6 -10 19 -4q72 27 157 27q203 0 363 -135q172 -145 172 -367q0 -219 -147.5 -376.5t-362.5 -157.5q-201 0 -353.5 129t-152.5 315z" />
<glyph unicode="6" horiz-adv-x="1114" d="M53 498q0 102 35 190q10 24 90 178l305 582h207l-207 -385q-18 -35 -27.5 -56.5t-9.5 -29.5q0 -14 17 -12q59 12 115 12q213 0 354 -143.5t141 -344.5q0 -213 -155.5 -358t-370.5 -145q-207 0 -350.5 149.5t-143.5 362.5zM229 516q0 -139 88.5 -244.5t219.5 -105.5 q139 0 244.5 86t105.5 217q0 139 -84 242q-90 108 -221 108q-141 0 -247 -86t-106 -217z" />
<glyph unicode="7" horiz-adv-x="962" d="M47 1262v192h887l-604 -1456h-211l491 1165q14 23 21.5 37t7.5 27q0 12 -8 20q-14 16 -41 17q-23 -2 -31 -2h-512z" />
<glyph unicode="8" horiz-adv-x="1024" d="M49 436q0 156 72 248q78 63 158 127q-57 51 -97 115q-45 72 -45 178q0 145 103.5 244.5t253.5 99.5q152 0 263 -96.5t111 -241.5q0 -111 -39 -182q-43 -55 -86 -111q88 -53 152 -143q72 -100 72 -238q0 -193 -132.5 -324.5t-322.5 -131.5q-188 0 -325.5 135t-137.5 321z M221 434q0 -123 82 -209t205 -86q121 0 204 89t83 212q0 117 -85 196t-206 79q-117 0 -200 -83t-83 -198zM313 1085q0 -86 53.5 -143t141.5 -57q86 0 138 60.5t52 144.5q0 78 -55 133t-135 55t-137.5 -57.5t-57.5 -135.5z" />
<glyph unicode="9" horiz-adv-x="1122" d="M47 956q0 211 155.5 356.5t375.5 145.5q207 0 350 -147.5t143 -364.5q0 -106 -57 -227q-35 -69 -68 -139l-278 -584h-207l178 387q2 6 14 31q20 43 21 55q0 14 -17 12q-61 -12 -116 -12q-213 0 -353.5 142.5t-140.5 344.5zM238 977q0 -141 86 -246.5t217 -105.5 q141 0 246.5 86t105.5 219q0 139 -88 243.5t-219 104.5q-141 0 -244.5 -84t-103.5 -217z" />
<glyph unicode=":" horiz-adv-x="327" d="M47 94q0 45 25.5 81t70.5 42q49 6 86 -24.5t37 -81.5q0 -45 -25.5 -77t-70.5 -36q-53 0 -84 18q-39 25 -39 78zM47 512q0 45 25.5 77t70.5 38q49 6 86 -25t37 -82q0 -45 -25.5 -76.5t-70.5 -35.5q-49 0 -86 28.5t-37 75.5z" />
<glyph unicode=";" horiz-adv-x="335" d="M45 100q0 51 35 86t88 35q45 0 78 -32.5t33 -79.5q-1 -41 -15 -66l-114 -186h-89l70 90q18 31 12 35q-31 23 -61 47q-37 35 -37 71zM47 524q0 47 29.5 83t77.5 42q49 4 85.5 -26.5t36.5 -79.5q0 -45 -25.5 -76t-70.5 -37q-51 -6 -89 17.5t-44 76.5z" />
<glyph unicode="?" horiz-adv-x="765" d="M53 1266q59 92 135 136t185 44q145 0 248.5 -109.5t103.5 -259.5q0 -238 -230.5 -330t-230.5 -159q0 -8 7.5 -44t57.5 -60.5t107 -20.5l31 -113q-39 -29 -105 -28q-92 0 -159 57q-80 70 -80 192q0 178 303 314q143 63 143 176q0 27 -6 57q-26 148 -178 164q-12 2 -35 2 q-113 0 -172 -100zM215 100q0 47 30.5 82t78.5 35q49 0 82.5 -31.5t33.5 -79.5q0 -47 -29.5 -80.5t-76.5 -33.5q-49 0 -84 30.5t-35 77.5z" />
<glyph unicode="@" horiz-adv-x="1572" d="M68 715q0 301 216 513t521 212q299 0 510 -217t211 -518q0 -137 -75 -242t-179 -105q-90 0 -139 80q-14 27 -31 80q-47 -76 -123 -120t-168 -44q-143 0 -245.5 102.5t-102.5 245.5q0 141 102.5 239.5t245.5 98.5q131 0 232.5 -84t101.5 -204q16 -94 29 -140 q41 -139 102 -139t98 51q45 63 45 195q0 256 -180 438t-438 182q-256 0 -439.5 -181t-183.5 -439q0 -256 182.5 -436.5t440.5 -180.5q94 0 150.5 8.5t88.5 41.5l23 -121q-131 -51 -268 -51q-299 0 -513 216t-214 519zM575 698q0 -96 68 -165.5t168 -69.5q98 0 165.5 71.5 t67.5 170.5q0 96 -67.5 161.5t-165.5 65.5q-96 0 -166 -67.5t-70 -166.5z" />
<glyph unicode="A" d="M96 -2v979q0 205 135.5 346t333.5 141q195 0 334 -143t139 -342v-981h-178v360q2 39 2 58q0 25 -4 43t-19.5 30.5t-47.5 12.5q-27 -2 -41 -2h-381q-29 0 -39 -2q-16 -4 -35 -19.5t-19 -58.5v-27v-395h-180zM281 739q0 -29 14 -46t36.5 -22t55.5 -5h346h29q31 0 39 2 q18 4 33 20q8 8 14 22.5t6 37.5q-2 26 -2 40v201q0 127 -80 214t-211 87q-125 0 -201.5 -98t-76.5 -231v-183q-2 -27 -2 -39z" />
<glyph unicode="B" horiz-adv-x="999" d="M96 0v1014q0 225 111 342q101 108 277 108h3q162 0 282 -109.5t120 -260.5q0 -96 -45 -181q-49 -68 -96 -135q78 -37 138 -125t60 -229q0 -180 -116 -302t-304 -122h-430zM268 924q0 -47 15.5 -64.5t46.5 -17.5q27 2 41 2h135q92 0 151.5 69.5t59.5 171.5 q0 90 -66.5 148.5t-161.5 58.5q-90 0 -154.5 -56t-64.5 -146l-2 -93v-47v-26zM274 248q0 -31 5.5 -50.5t21.5 -19.5q20 0 43 -1t49 -1q170 0 254 39q135 63 135 231q0 131 -120 193q-96 49 -261 49h-51q-33 -4 -49 -4q-16 -2 -21.5 -17.5t-5.5 -45.5v-29v-311v-33z" />
<glyph unicode="C" horiz-adv-x="1105" d="M49 723q0 299 216 511t517 212q131 0 248 -37v-182q-117 55 -248 55q-231 0 -395 -166t-164 -399q0 -231 164 -399t395 -168q70 0 131.5 15t114.5 42v-178q-121 -45 -244 -45q-305 0 -520 217t-215 522z" />
<glyph unicode="D" horiz-adv-x="1128" d="M96 -2v1464h33h31h26h64.5t48.5 2q319 0 547 -198q238 -209 237 -523q0 -381 -270 -585q-207 -158 -459 -158zM291 240q0 -70 96 -70q158 0 320 147q190 174 190 428q0 229 -199 396q-170 143 -325 143q-82 0 -82 -57v-987z" />
<glyph unicode="E" horiz-adv-x="837" d="M96 -4v1456h670v-168h-395h-25q-47 0 -57 -12t-10 -37v-25l-3 -247q0 -47 14.5 -64.5t49.5 -17.5h20h379v-176h-387q-25 0 -35 -3q-14 -2 -27.5 -16t-13.5 -45v-18l3 -357l4 -67q4 -6 19 -10.5t50 -4.5h430v-188h-686z" />
<glyph unicode="F" horiz-adv-x="780" d="M98 -4v1456h670v-166h-397q-25 0 -48.5 -1t-32.5 -12t-9 -36v-25v-249v-27q0 -20 10 -37q12 -12 28.5 -15t45.5 -3h376v-174h-387q-35 0 -41 -2q-8 -2 -20 -16.5t-12 -63.5v-629h-183z" />
<glyph unicode="G" horiz-adv-x="1232" d="M49 731q0 301 218 511t526 210q70 0 112.5 -7t110.5 -30v-172q-53 23 -107.5 33t-115.5 10q-233 0 -400.5 -165t-167.5 -396q0 -240 157 -405.5t411 -165.5q78 0 149 14q23 6 30 21.5t7 41.5v29v426h184v-596q-49 -39 -119 -65q-111 -41 -249 -41q-307 0 -526.5 219 t-219.5 528z" />
<glyph unicode="H" horiz-adv-x="1261" d="M98 -2v1456h197v-420v-51q0 -18 1 -35.5t12 -29t57 -11.5h507h27q31 0 45 3t17 18q6 16 6 43q-2 33 -2 45v438h196v-1456h-194v618v46q0 45 -9 55q-8 12 -34 12q-25 -2 -37 -2h-506h-31q-31 0 -45 -8q-12 -8 -12 -66v-35.5t2 -33.5v-586h-197z" />
<glyph unicode="I" horiz-adv-x="397" d="M98 -2v1466h199v-1466h-199z" />
<glyph unicode="J" horiz-adv-x="624" d="M10 -6v184q98 0 160.5 31t118.5 106q43 55 55 114t12 149v874h172v-891q0 -117 -10 -178t-57 -133q-84 -129 -193.5 -192.5t-257.5 -63.5z" />
<glyph unicode="K" horiz-adv-x="1083" d="M96 -4v1456h201v-729q23 8 44 18.5t46 38t33 41t33 51.5l372 580h217l-354 -537q-23 -31 -33 -47q-20 -31 -20 -45q0 -10 8 -16q172 -113 266 -246q115 -162 115 -358v-207h-172v119q0 127 -37 237q-47 142 -149 230q-68 59 -134.5 91t-142.5 32q-43 0 -92 -13v-696h-201 z" />
<glyph unicode="L" horiz-adv-x="800" d="M96 0v1456h199v-1202q0 -47 6 -59t41 -13h35h405v-182h-686z" />
<glyph unicode="M" horiz-adv-x="1757" d="M98 0v965q0 203 107 344q114 153 307 153h2q137 0 223 -55q70 -59 140 -119q57 70 139 121q92 57 231 57q184 0 295 -144t111 -364v-958h-195v956q0 131 -53 228q-60 110 -168 110h-2q-156 0 -221 -98q-51 -78 -51 -221v-975h-189v971q0 190 -69 264q-59 61 -173 61 q-139 0 -196 -108q-43 -82 -43 -232v-956h-195z" />
<glyph unicode="N" horiz-adv-x="1230" d="M109 -4v1456l735 -850q31 -37 53 -55q33 -27 45 -19q10 6 14.5 44t4.5 79v51v750h174v-1466l-750 868q-31 39 -35 43q-25 23 -49 14q-31 -10 -31 -57q2 -33 2 -49v-809h-163z" />
<glyph unicode="O" horiz-adv-x="1556" d="M49 715q0 301 216 513t521 212q299 0 510 -217t211 -518q0 -299 -215 -512t-516 -213q-299 0 -513 216t-214 519zM221 709q0 -233 166 -397.5t399 -164.5t397.5 164t164.5 398q0 233 -165.5 398t-396.5 165q-233 0 -399 -164t-166 -399z" />
<glyph unicode="P" horiz-adv-x="1177" d="M98 0v965q0 229 137.5 360t376.5 131q203 0 352.5 -131t170.5 -336q2 -12 2 -24v-23q0 -193 -127 -335t-324 -179q-18 -4 -43 -6t-45 -2q-98 0 -182 41q-72 45 -142 92q-6 0 -6 -14v-541zM281 963q0 -164 95 -261.5t240 -97.5q139 0 236.5 99.5t97.5 242.5 q0 141 -100 241.5t-240 100.5q-133 0 -231 -96t-98 -229z" />
<glyph unicode="Q" horiz-adv-x="1564" d="M49 696q0 303 215 514t520 211q301 0 512 -215t211 -520q0 -113 -18 -192q-23 -72 -43 -144q0 -6 4 -18q29 -74 59 -146q25 -74 25 -155l-2 -176l-160 2l2 174q0 84 -22 117q-18 27 -45 27q-6 0 -11 -1q-104 -100 -239 -156.5t-283 -56.5q-299 0 -512 217t-213 518z M217 649q0 -184 152 -338q82 -51 166 -100q78 141 129 195q66 68 176 110q78 31 170 31q66 0 125 -14.5t141 -43.5q8 -3 16 -3q35 0 47 65q8 43 9 141q0 231 -165 396t-399 165q-227 0 -383.5 -161.5t-181.5 -399.5q-2 -14 -2 -43zM696 166q0 -15 6 -21q22 -28 80 -28h4 q115 0 264 81q129 71 129 118q0 7 -3 14q-16 33 -70.5 52t-120.5 19q-61 0 -115.5 -18t-114 -94t-59.5 -123z" />
<glyph unicode="R" horiz-adv-x="993" d="M96 -2v983q0 209 124 341t315 132q178 0 300.5 -131t122.5 -309q0 -195 -127 -309q-92 -84 -237 -117q-16 -2 -16 -17q0 -12 13 -35.5t40 -60.5l346 -475l-197 -2l-424 559q-31 45 -41 53q-18 14 -39 11q-10 -2 -14 -26t-4 -52v-37v-508h-162zM276 1012q0 -113 76 -188.5 t195 -75.5q106 0 175 82.5t69 195.5q0 104 -72 182t-176 78q-111 0 -189 -82t-78 -192z" />
<glyph unicode="S" horiz-adv-x="927" d="M31 324l168 71q20 -102 90.5 -167.5t173.5 -65.5q102 0 180 75.5t78 176.5q0 176 -166 260q-156 61 -309 125q-166 90 -166 284q0 156 99.5 265.5t264.5 109.5q113 0 204 -59.5t126 -161.5l-149 -68q-43 76 -79 100.5t-102 24.5q-80 0 -135 -63.5t-55 -145.5 q0 -100 166 -172q262 -113 309 -147q166 -123 166 -352q0 -178 -128 -304t-298 -126q-143 0 -268 90q-135 98 -170 250z" />
<glyph unicode="T" horiz-adv-x="987" d="M14 1278v176h965v-176h-295q-25 0 -50.5 -1t-34.5 -12.5t-9 -37.5v-27v-1202h-201v1200q0 49 -10 61.5t-27 16.5q-10 2 -35 2h-303z" />
<glyph unicode="U" horiz-adv-x="1126" d="M76 557v909h182v-909q0 -166 68 -268q82 -123 245 -123q176 0 250 125q55 94 56 270v905h182v-905q0 -258 -111 -405q-127 -170 -383 -170q-231 0 -364 166q-125 155 -125 405z" />
<glyph unicode="V" horiz-adv-x="1124" d="M6 1456h209q115 -334 186 -538q137 -386 168 -386q18 0 82 162q45 117 134 371t143 391h198l-563 -1472z" />
<glyph unicode="W" horiz-adv-x="1501" d="M4 1456h184q27 -100 77 -337.5t71 -327.5q37 -162 47 -162q14 0 86 149q53 115 149 330q106 238 148 326q51 -96 145 -318q129 -301 138 -317q66 -145 84 -146q20 0 112 457l70 344h182l-289 -1454q-20 20 -125 262q-150 342 -190 434q-104 231 -123 232q-23 0 -154 -281 q-153 -331 -305 -663z" />
<glyph unicode="X" horiz-adv-x="1028" d="M0 -2q190 365 250 477q92 178 120.5 240.5t26.5 85.5q0 39 -57 160q-121 244 -242 495h211q59 -141 119 -282q70 -160 96 -164q16 0 43 49q90 184 195 397h201q-125 -248 -227.5 -435t-100.5 -210q0 -25 45 -121q0 -2 135 -268q78 -156 211 -424l-209 2 q-193 406 -229 485q-47 97 -71 97h-1q-14 0 -101 -179.5t-202 -402.5z" />
<glyph unicode="Y" horiz-adv-x="1081" d="M8 1456h215q176 -379 244 -500q53 -96 80 -96q23 0 65 68q35 55 111 202q162 315 168 326h199q-27 -53 -181 -326q-117 -207 -184 -350q-86 -180 -86 -250v-45v-34v-76v-68v-59v-49v-41v-33v-27v-66.5t-2 -31.5h-205v209.5v322.5q0 70 -74 238q-57 131 -168 342 q-92 172 -182 344z" />
<glyph unicode="Z" horiz-adv-x="962" d="M-8 0l645 1253q0 16 -18.5 21.5t-55.5 5.5h-35l-405 2v174h835q-82 -162 -163 -323q-156 -311 -306 -607q-166 -332 -167 -336q-2 -12 15 -15t50 -3h535v-172h-930z" />
<glyph unicode="[" horiz-adv-x="495" d="M96 -307v1759h342v-168h-67h-25q-47 0 -57 -12t-10 -37v-25v-1247l4 -67q4 -6 19 -10.5t50 -4.5h103v-188h-359z" />
<glyph unicode="\" horiz-adv-x="1128" d="M2 1464h150l983 -1466h-150z" />
<glyph unicode="]" horiz-adv-x="512" d="M66 -119h102q20 0 40.5 1t29.5 14l4 67v1247v25q0 25 -10.5 37t-57.5 12h-24h-68v168h342v-1759h-358v188z" />
<glyph unicode="^" horiz-adv-x="647" d="M143 918v96l197 65l188 -65v-96l-188 63z" />
<glyph unicode="_" horiz-adv-x="720" d="M-16 -348h784v-121h-784v121z" />
<glyph unicode="`" d="M389 1593v97l383 -66v-96z" />
<glyph unicode="a" horiz-adv-x="1126" d="M49 449q0 188 136.5 320t328.5 132q170 0 295 -110.5t152 -276.5l217 -518l-183 4l-94 205q-59 -98 -163.5 -158.5t-223.5 -60.5q-193 0 -329 136t-136 327zM201 444q0 -131 91 -222t222 -91t221 94t90 228q0 127 -92 215t-219 88q-129 0 -221 -90.5t-92 -221.5z" />
<glyph unicode="b" horiz-adv-x="1046" d="M98 434v998h152v-615v-39q129 119 313 119q188 0 320.5 -136t132.5 -327q0 -188 -132 -320t-321 -132q-190 0 -327.5 133t-137.5 319zM250 440q0 -131 91 -222t222 -91t221 94t90 228q0 127 -92 215t-219 88q-129 0 -221 -90.5t-92 -221.5z" />
<glyph unicode="c" horiz-adv-x="757" d="M45 446q0 111 45 206.5t131 158.5q129 92 266 92q109 0 215 -57v-162q-90 74 -200 74q-121 0 -211 -82q-102 -92 -103 -240q0 -141 101 -221q113 -88 215 -88q51 0 99 19.5t95 58.5v-172q-104 -49 -206 -49q-168 0 -308 129q-68 66 -103.5 151.5t-35.5 181.5z" />
<glyph unicode="d" horiz-adv-x="1064" d="M49 418q0 186 125 330q132 151 320 151h2q78 0 147.5 -24.5t126.5 -69.5q14 -10 16 -10q8 0 9 26v615h170v-1000q0 -184 -130 -318t-311 -134q-180 0 -327.5 131t-147.5 303zM201 428q0 -121 92 -205t217 -84q123 0 209 84t86 207q0 127 -82 221q-88 100 -215 101 q-131 0 -219 -99.5t-88 -224.5z" />
<glyph unicode="e" horiz-adv-x="1017" d="M49 455q0 184 135 315t324 131q193 0 333 -138t140 -329q0 -35 -2 -51h-660q-45 0 -66.5 -4t-25.5 -29q-1 -7 -1 -15q0 -59 83 -129q94 -78 197 -79q66 0 135 31q47 20 102 61l93 -106q-78 -66 -156 -96.5t-178 -30.5q-188 0 -320.5 138t-132.5 331zM244 541 q2 -10 18.5 -14.5t36.5 -4.5h27h381h34q35 0 53 6q13 5 13 15q0 3 -2 8q-23 90 -101.5 147.5t-181.5 57.5q-100 0 -193 -72q-86 -66 -86 -132q0 -5 1 -11z" />
<glyph unicode="f" horiz-adv-x="548" d="M18 776v144h15q18 -2 37 -2q51 0 72.5 4t23.5 18q12 119 34.5 188.5t80.5 143.5q29 39 116.5 100.5t128.5 67.5l66 12v-152l-31 -10q-31 -8 -80 -45q-63 -47 -92 -98q-20 -37 -33.5 -81t-13.5 -81q0 -29 9 -43t27.5 -21.5t59.5 -7.5h51h60v-137h-45q-80 0 -113 -4 t-45 -30.5t-12 -47.5q2 -21 2 -37v-661h-164v655v43q0 31 -13.5 49.5t-36 25.5t-54.5 7h-50z" />
<glyph unicode="g" horiz-adv-x="1034" d="M-6 -362l119 81q59 -82 139 -117.5t188 -35.5q147 0 257 107.5t110 252.5q-2 20 -2 31v64.5t2 62.5q-37 -43 -125 -70.5t-168 -27.5q-213 0 -339 132t-126 331q0 188 136.5 320t328.5 132q195 0 324 -125t129 -340v-497q0 -213 -156 -365t-371 -152q-147 0 -253.5 50.5 t-192.5 165.5zM201 444q0 -129 90 -215t223 -86q131 0 221 88t90 222q0 125 -91 214t-220 89t-221 -90.5t-92 -221.5z" />
<glyph unicode="h" horiz-adv-x="950" d="M96 -4v1456h146v-508v-43q0 -31 5 -46t21 -5q31 16 104.5 35.5t143.5 19.5q55 0 93 -9t79 -34q84 -53 126 -122.5t42 -166.5v-577h-156v508q0 106 -49 178q-57 82 -153 82q-98 0 -180 -70t-82 -172v-526h-140z" />
<glyph unicode="i" horiz-adv-x="364" d="M63 1139q0 43 31 73.5t76 30.5q43 0 73.5 -30.5t30.5 -73.5t-30.5 -74t-73.5 -31q-45 0 -76 29t-31 76zM96 -4v919h152v-919h-152z" />
<glyph unicode="j" horiz-adv-x="362" d="M-197 -416q84 10 155 55.5t105 104.5q27 45 39.5 92t12.5 158v921h153v-956q0 -111 -24.5 -185.5t-91.5 -160.5q-37 -47 -136 -107q-121 -73 -211 -73h-2v151zM72 1126q0 45 30.5 76t75.5 31q43 0 74 -31t31 -76q0 -41 -31 -71.5t-74 -30.5q-45 0 -75.5 28.5t-30.5 73.5z " />
<glyph unicode="k" horiz-adv-x="825" d="M96 0l2 1458h172v-794q-2 -41 -2 -60q0 -61 31 -61q25 0 51 37q20 29 29 38l231 300h199l-211 -271q-18 -23 -34.5 -46t-16.5 -46q49 -35 76 -55q84 -68 116 -117q55 -86 76 -173t21 -210h-162q0 113 -26.5 192.5t-94.5 153.5q-43 47 -103.5 72.5t-109.5 25.5 q-25 0 -41 -11t-23.5 -26.5t-7.5 -39.5q2 -31 2 -48v-321z" />
<glyph unicode="l" horiz-adv-x="344" d="M96 0v1456h152v-1456h-152z" />
<glyph unicode="m" horiz-adv-x="1495" d="M96 -4v598q0 139 110.5 228t260.5 89q82 0 155.5 -35.5t125.5 -97.5q109 135 292 135q143 0 249 -97t106 -238v-578h-144v516q0 96 -59 167t-152 71q-92 0 -155.5 -72t-63.5 -166v-516h-143v522q0 96 -59.5 167t-151.5 71t-160.5 -64.5t-68.5 -154.5v-545h-142z" />
<glyph unicode="n" horiz-adv-x="950" d="M98 0v590q0 166 117 248q101 71 260 71h4q160 0 262 -75q117 -86 117 -244v-590h-149v520q0 125 -62.5 181.5t-167.5 56.5q-100 0 -169.5 -56.5t-69.5 -162.5v-539h-142z" />
<glyph unicode="o" horiz-adv-x="1019" d="M55 449q0 188 136.5 320t328.5 132q188 0 320.5 -136t132.5 -327q0 -188 -132 -320t-321 -132q-193 0 -329 136.5t-136 326.5zM207 444q0 -131 91 -222t222 -91t221 94t90 228q0 127 -92 215t-219 88q-129 0 -221 -90.5t-92 -221.5z" />
<glyph unicode="p" horiz-adv-x="1054" d="M98 436q0 217 140 346q129 119 325 119q188 0 320.5 -136t132.5 -329q0 -188 -131 -319t-322 -131q-121 0 -205 37q-27 12 -59 36q-20 6 -29.5 -16.5t-9.5 -50.5v-19q0 -2 2 -4v-526h-164v993zM250 444q0 -129 92 -221t221 -92t220 93t91 227q0 127 -91 216t-220 89 q-127 0 -220 -91.5t-93 -220.5z" />
<glyph unicode="q" horiz-adv-x="1060" d="M49 438q0 190 132 326.5t321 136.5q190 0 327.5 -131t137.5 -321l-2 -994h-158v529q0 45 -14 63q-12 23 -25 23q-123 -84 -266 -84q-188 0 -320.5 132t-132.5 320zM190 453q0 -133 90.5 -227.5t221.5 -94.5q123 0 219 84q104 90 104 217q0 143 -97 233.5t-226 90.5 q-127 0 -219.5 -88t-92.5 -215z" />
<glyph unicode="r" horiz-adv-x="522" d="M96 0v371v46v32q0 154 25.5 222t81.5 124q68 68 141.5 95.5t175.5 27.5v-150q-78 0 -132 -22.5t-89 -85t-44 -108.5t-9 -118v-37v-397h-150z" />
<glyph unicode="s" horiz-adv-x="700" d="M31 332l153 -51q-1 -11 -1 -21q0 -64 43 -96q50 -37 126 -37q72 0 123 44t51 114q0 82 -217 151.5t-217 220.5q0 102 75 175t181 73q98 0 169 -61.5t81 -159.5l-135 33q-20 37 -52 59q-27 19 -59 20q-6 0 -12 -1q-45 -8 -68.5 -44t-23.5 -83q0 -63 210 -130t210 -251 q0 -133 -90.5 -213t-221.5 -80q-139 0 -232 95t-93 243z" />
<glyph unicode="t" horiz-adv-x="505" d="M-4 764v154h27q53 0 59 10q4 4 6 28.5t2 42.5v43v125h154v-129q0 -31 1 -66.5t7 -43.5q8 -8 30.5 -9t49.5 -1h133v-154h-127q-29 0 -57.5 -1t-32.5 -18q-2 -6 -2 -32.5v-42.5v-49.5v-26.5v-133q0 -88 16.5 -135t44.5 -84q16 -25 76.5 -60t99.5 -35v-153q-102 10 -182 52 t-137 124q-43 61 -57.5 124.5t-14.5 129.5v61v101v12v31v35q0 63 -6 81.5t-53 18.5h-37z" />
<glyph unicode="u" horiz-adv-x="974" d="M96 313v605h146v-549q0 -96 72.5 -162t172.5 -66q98 0 168 72t70 174v531h154v-605q0 -143 -118 -235t-274 -92q-158 0 -270 88q-121 94 -121 239z" />
<glyph unicode="v" horiz-adv-x="913" d="M-4 915h182l211 -481q33 -86 59.5 -135t38.5 -49q29 0 101 194l151 471h174l-329 -915h-195z" />
<glyph unicode="w" horiz-adv-x="1411" d="M-8 915h174l184 -507q14 -41 30.5 -81t39.5 -40q18 0 37 41q10 23 26 75l174 512h99l194 -522q10 -33 25 -61q25 -47 43 -47q23 0 43 47q8 20 22 65l174 518h164l-315 -919h-186l-150 418q-14 43 -27 69q-18 35 -32 37t-29.5 -42t-24.5 -64l-145 -418h-180z" />
<glyph unicode="x" horiz-adv-x="765" d="M-23 -4l175 272q51 78 104 158q24 39 24 55q0 3 -1 6q-25 49 -53.5 93.5t-41.5 64.5l-161 273h188l117 -201q16 -29 29.5 -42t35.5 -13q20 0 35 18q8 10 25 41l106 197h182l-174 -300q-23 -37 -44 -75.5t-21 -61.5q0 -25 22 -65q6 -13 49 -76l240 -344h-190l-154 229 q-18 33 -31 51q-23 35 -41 35q-16 0 -39 -28q-8 -10 -36 -58l-154 -229h-191z" />
<glyph unicode="y" horiz-adv-x="983" d="M-53 -301l114 90q57 -74 164 -111q81 -28 172 -28h6q178 0 271 147q67 107 67 234q0 41 -6 51q-4 8 -10 2q-39 -43 -94 -74q-70 -39 -137 -39q-18 -2 -29 -2q-152 0 -261.5 120t-109.5 284v545h168v-537q0 -102 67.5 -178t166.5 -76q104 0 169.5 78.5t65.5 187.5v525h164 v-746q0 -330 -143 -498q-123 -143 -344 -166q-25 -2 -43.5 -3t-28.5 -1q-119 0 -212 48.5t-177 146.5z" />
<glyph unicode="z" horiz-adv-x="747" d="M6 0l383 664q18 31 37 61q8 18 0 33q-10 16 -27.5 21t-46.5 5h-272v134h639l-381 -650q-31 -51 -37 -63q-18 -37 -8 -51q6 -10 20 -15q8 -2 31 -2h23h362v-137h-723z" />
<glyph unicode="{" horiz-adv-x="720" d="M49 717q41 39 62 61q63 70 63 103q0 330 86 495q111 211 387 260v-163q-184 -47 -252 -211q-51 -125 -51 -381q0 -33 -57 -101q-18 -23 -58 -63q39 -45 58 -68q57 -72 57 -96q0 -268 43 -377q61 -156 252 -207v-153q-291 55 -389 235q-78 143 -78 502q0 23 -61 94 q-21 23 -62 70z" />
<glyph unicode="}" horiz-adv-x="720" d="M98 1481v164q276 -49 385 -259q88 -170 88 -497q0 -33 62 -101q20 -22 63 -61q-41 -43 -61 -68q-61 -74 -62 -98q0 -358 -79 -502q-98 -178 -394 -235v153q190 51 254 207q47 115 47 377q0 23 58 96q18 25 57 70q-39 37 -57 59q-57 68 -58 103q0 260 -49 381 q-68 164 -254 211z" />
<glyph unicode="~" horiz-adv-x="565" d="M98 745v97q29 23 45 32q51 33 86 33q23 0 58 -19.5t71 -39.5q33 0 82 31q16 10 45 32v-96q-27 -23 -43 -33q-49 -33 -84 -32q-25 0 -86 38q-33 21 -43 21q-33 0 -84 -31q-16 -10 -47 -33z" />
<glyph unicode="&#xa1;" horiz-adv-x="399" d="M61 1352q0 47 26 81.5t71 39.5q49 8 90 -23t41 -80q0 -51 -26.5 -88t-69.5 -37q-55 0 -93.5 30t-38.5 77zM98 0v1079h172l-2 -1079h-170z" />
<glyph unicode="&#xa2;" horiz-adv-x="765" d="M37 610q0 111 45 206t131 159q96 72 205 88v156h84v-152q88 0 192 -57v-162q-90 74 -192 74v-631q47 0 95 19.5t93 58.5v-172q-102 -49 -188 -50v-145h-84v152q-131 18 -242 122q-68 66 -103.5 152t-35.5 182zM180 600q0 -141 101 -221q70 -53 137 -76v608 q-72 -14 -135 -71q-102 -92 -103 -240z" />
<glyph unicode="&#xa3;" horiz-adv-x="1091" d="M43 111q0 27 2 41t14.5 45.5t71.5 48.5q66 14 133 30q29 57 29 177q0 70 -11.5 128t-35.5 103q-10 25 -49 25h-150v135q14 0 29.5 -1t32.5 -1q33 0 49 7t10 30q-25 84 -25 157q0 172 106.5 289t266.5 117q145 0 247.5 -98.5t115.5 -245.5l-160 -2q0 76 -66.5 132 t-144.5 56q-96 0 -148.5 -77t-52.5 -181q0 -127 76 -172q18 -10 59 -10h45h136v-135h-99h-32q-18 0 -42 -2t-22 -21q12 -104 19.5 -162.5t7.5 -113.5q0 -61 -7.5 -104.5t-27.5 -86.5q-8 -18 66.5 -46t142.5 -28q29 0 51 7q98 23 158.5 103.5t60.5 178.5h158 q0 -170 -110.5 -295t-280.5 -147q-12 -2 -37 -2q-57 0 -128 20.5t-141 42.5q-33 0 -63 -16q-76 -41 -90 -41q-74 0 -113 20q-51 27 -51 95z" />
<glyph unicode="&#xa5;" horiz-adv-x="1083" d="M6 1456h215q176 -379 244 -500q53 -96 80 -96q23 0 65 68q35 55 111 202q162 315 168 326h198q-27 -53 -180 -326q-117 -207 -184 -350q-86 -180 -86 -250v-30h119v-121h-121v-117h121v-121h-121v-141h-205l2 141h-108v121h108v117h-108v121h106v32q0 70 -74 238 q-57 131 -168 342q-92 172 -182 344z" />
<glyph unicode="&#xa7;" horiz-adv-x="741" d="M55 602q0 106 64 184q20 25 65 58q-37 27 -57.5 64.5t-20.5 92.5q0 102 75 175t181 73q98 0 169 -61.5t81 -159.5l-135 33q-20 37 -52 59.5t-71 18.5q-45 -8 -68.5 -44t-23.5 -83q0 -63 210 -130t210 -251q0 -80 -34 -141.5t-95 -100.5q27 -31 39 -49q39 -60 39 -109 q0 -102 -79 -179t-185 -77q-96 0 -164 64.5t-78 165.5l135 -33q20 -37 52 -59.5t71 -18.5q45 8 68.5 44t23.5 83q0 63 -210 130t-210 251zM199 618q0 -47 38 -87t97 -54q25 -6 51 -6q57 0 101 29.5t57 83.5q4 20 4 30q0 47 -38 87t-97 55q-25 6 -52 6q-57 0 -101 -30 t-56 -83q-4 -20 -4 -31z" />
<glyph unicode="&#xa8;" horiz-adv-x="700" d="M115 1602q0 41 20.5 67.5t59.5 26.5q33 0 61.5 -22.5t28.5 -57.5t-18.5 -59.5t-53.5 -28.5q-37 -8 -67.5 14.5t-30.5 59.5zM422 1602q0 41 20.5 67.5t59.5 26.5q33 0 61.5 -22.5t28.5 -57.5t-18.5 -59.5t-53.5 -28.5q-37 -8 -67.5 14.5t-30.5 59.5z" />
<glyph unicode="&#xaa;" horiz-adv-x="647" d="M27 686v121h585v-121h-585zM31 1145q0 94 67.5 159.5t165.5 65.5q84 0 146.5 -54t76.5 -138l109 -260h-92l-47 104q-31 -51 -82 -81t-111 -30q-98 0 -165.5 68t-67.5 166zM106 1143q0 -66 46.5 -112t111.5 -46q66 0 111 47t45 115q0 63 -46.5 107t-109.5 44t-110.5 -45 t-47.5 -110z" />
<glyph unicode="&#xab;" horiz-adv-x="868" d="M49 653l305 305l84 -86l-221 -221l223 -221l-86 -84zM408 653l305 305l84 -86l-222 -221l224 -221l-86 -84z" />
<glyph unicode="&#xad;" horiz-adv-x="565" d="M47 473v121h471v-121h-471z" />
<glyph unicode="&#xaf;" horiz-adv-x="565" d="M96 1528v96h350v-96h-350z" />
<glyph unicode="&#xb0;" horiz-adv-x="499" d="M125 1231q0 59 43 102t102 43t102.5 -43t43.5 -102q0 -61 -41 -106.5t-105 -45.5q-59 0 -102 45.5t-43 106.5zM188 1227q0 -37 25 -59.5t61 -22.5q33 0 55.5 24.5t22.5 61.5q0 35 -23.5 58.5t-58.5 23.5q-37 0 -59.5 -24.5t-22.5 -61.5z" />
<glyph unicode="&#xb4;" horiz-adv-x="593" d="M154 1528v96l383 66v-97z" />
<glyph unicode="&#xb6;" horiz-adv-x="1470" d="M39 942q0 29 2 43q20 203 168.5 335t353.5 132q213 0 346 -123v119h457v-1450h-166v1321h-123l-2 -1321h-166v559q-63 -70 -104 -92q-94 -49 -279 -49q-201 0 -344 160.5t-143 365.5zM238 938q0 -141 96 -241.5t237 -100.5q150 0 249.5 97t99.5 261q0 133 -102.5 229.5 t-239.5 96.5q-139 0 -239.5 -100.5t-100.5 -241.5z" />
<glyph unicode="&#xb7;" horiz-adv-x="335" d="M49 659q0 53 26.5 89t80.5 36q47 0 83.5 -29.5t36.5 -76.5t-25.5 -81t-70.5 -40q-51 -8 -91 22.5t-40 79.5z" />
<glyph unicode="&#xb8;" horiz-adv-x="1257" d="M356 -524l64 71q37 -43 86 -43q53 0 92 35t39 88t-36 91t-89 38q-12 0 -27.5 -3t-31.5 -11l-39 86q29 18 59 22v25.5v30.5q0 41 1 81t5 40l80 2q4 0 4 -58v-90t2 -35q74 -18 120 -76.5t46 -136.5q0 -90 -63.5 -157.5t-155.5 -67.5t-156 68z" />
<glyph unicode="&#xba;" horiz-adv-x="540" d="M27 686v121h479v-121h-479zM41 1153q0 96 67.5 159.5t165.5 63.5q94 0 160 -67.5t66 -163.5q0 -94 -65.5 -159.5t-160.5 -65.5q-98 0 -165.5 67.5t-67.5 165.5zM117 1151q0 -66 45 -113t112 -47q66 0 111 47t45 117q0 63 -46.5 107.5t-109.5 44.5t-110 -45t-47 -111z" />
<glyph unicode="&#xbb;" horiz-adv-x="868" d="M47 426l223 221l-221 221l84 86l305 -305l-305 -307zM406 426l223 221l-221 221l84 86l305 -305l-305 -307z" />
<glyph unicode="&#xbf;" horiz-adv-x="747" d="M53 360q0 238 230.5 330t230.5 160q0 8 -4 33q-10 47 -60.5 71.5t-107.5 20.5l-31 112q39 29 105 29q92 0 159 -57q80 -70 80 -193q0 -178 -303 -313q-143 -63 -143 -176q0 -27 6 -58q26 -147 178 -163q12 -2 35 -2q113 0 172 100l125 -82q-59 -92 -135 -136t-184 -44 q-145 0 -249 109.5t-104 258.5zM338 1331q0 47 29.5 81t76.5 34q49 0 84 -31t35 -78t-30.5 -81.5t-77.5 -34.5q-49 0 -83 31.5t-34 78.5z" />
<glyph unicode="&#xc0;" d="M96 -2v979q0 205 135.5 346t333.5 141q195 0 334 -143t139 -342v-981h-178v360q2 39 2 58q0 25 -4 43t-19.5 30.5t-47.5 12.5q-27 -2 -41 -2h-381q-29 0 -39 -2q-16 -4 -35 -19.5t-19 -58.5v-27v-395h-180zM281 739q0 -29 14 -46t36.5 -22t55.5 -5l346 2h29q31 0 39 2 q18 4 33 20q8 8 14 22.5t6 37.5q-2 27 -2 41v198q0 127 -80 214t-211 87q-125 0 -201.5 -98t-76.5 -231v-183q-2 -27 -2 -39zM377 1593v97l383 -66v-96z" />
<glyph unicode="&#xc1;" d="M96 -2v979q0 205 135.5 346t333.5 141q195 0 334 -143t139 -342v-981h-178v360q2 39 2 58q0 25 -4 43t-19.5 30.5t-47.5 12.5q-27 -2 -41 -2h-381q-29 0 -39 -2q-16 -4 -35 -19.5t-19 -58.5v-27v-395h-180zM281 739q0 -29 14 -46t36.5 -22t55.5 -5l346 2h29q31 0 39 2 q18 4 33 20q8 8 14 22.5t6 37.5q-2 27 -2 41v198q0 127 -80 214t-211 87q-125 0 -201.5 -98t-76.5 -231v-183q-2 -27 -2 -39zM391 1528v96l383 66v-97z" />
<glyph unicode="&#xc2;" d="M96 -2v979q0 205 135.5 346t333.5 141q195 0 334 -143t139 -342v-981h-178v360q2 39 2 58q0 25 -4 43t-19.5 30.5t-47.5 12.5q-27 -2 -41 -2h-381q-29 0 -39 -2q-16 -4 -35 -19.5t-19 -58.5v-27v-395h-180zM281 739q0 -29 14 -46t36.5 -22t55.5 -5l346 2h29q31 0 39 2 q18 4 33 20q8 8 14 22.5t6 37.5q-2 27 -2 41v198q0 127 -80 214t-211 87q-125 0 -201.5 -98t-76.5 -231v-183q-2 -27 -2 -39zM369 1534v96l196 66l189 -66v-96l-189 63z" />
<glyph unicode="&#xc3;" d="M96 -2v979q0 205 135.5 346t333.5 141q195 0 334 -143t139 -342v-981h-178v360q2 39 2 58q0 25 -4 43t-19.5 30.5t-47.5 12.5q-27 -2 -41 -2h-381q-29 0 -39 -2q-16 -4 -35 -19.5t-19 -58.5v-27v-395h-180zM281 739q0 -29 14 -46t36.5 -22t55.5 -5l346 2h29q31 0 39 2 q18 4 33 20q8 8 14 22.5t6 37.5q-2 27 -2 41v198q0 127 -80 214t-211 87q-125 0 -201.5 -98t-76.5 -231v-183q-2 -27 -2 -39zM362 1524v96q29 23 46 33q51 33 86 33q23 0 57.5 -19.5t71.5 -40.5q33 0 82 31q16 10 45 33v-97q-27 -23 -43 -32q-49 -33 -84 -33q-25 0 -86 39 q-33 20 -43 20q-33 0 -84 -31q-16 -10 -48 -32z" />
<glyph unicode="&#xc4;" d="M96 -2v979q0 205 135.5 346t333.5 141q195 0 334 -143t139 -342v-981h-178v360q2 39 2 58q0 25 -4 43t-19.5 30.5t-47.5 12.5q-27 -2 -41 -2h-381q-29 0 -39 -2q-16 -4 -35 -19.5t-19 -58.5v-27v-395h-180zM281 739q0 -29 14 -46t36.5 -22t55.5 -5h346h29q31 0 39 2 q18 4 33 20q8 8 14 22.5t6 37.5q-2 26 -2 40v201q0 127 -80 214t-211 87q-125 0 -201.5 -98t-76.5 -231v-183q-2 -27 -2 -39zM319 1602q0 41 20.5 67.5t59.5 26.5q33 0 61.5 -22.5t28.5 -57.5t-18 -59.5t-53 -28.5q-37 -8 -68 14.5t-31 59.5zM627 1602q0 41 20.5 67.5 t59.5 26.5q33 0 61.5 -22.5t28.5 -57.5t-18.5 -59.5t-53.5 -28.5q-37 -8 -67.5 14.5t-30.5 59.5z" />
<glyph unicode="&#xc5;" d="M96 -2v979q0 205 135.5 346t333.5 141q195 0 334 -143t139 -342v-981h-178v360q2 39 2 58q0 25 -4 43t-19.5 30.5t-47.5 12.5q-27 -2 -41 -2h-381q-29 0 -39 -2q-16 -4 -35 -19.5t-19 -58.5v-27v-395h-180zM281 739q0 -29 14 -46t36.5 -22t55.5 -5h346h29q31 0 39 2 q18 4 33 20q8 8 14 22.5t6 37.5q-2 26 -2 40v201q0 127 -80 214t-211 87q-125 0 -201.5 -98t-76.5 -231v-183q-2 -27 -2 -39zM420 1677q0 59 43 102.5t102 43.5t102.5 -43t43.5 -103q0 -61 -41 -106t-105 -45q-59 0 -102 45t-43 106zM483 1673q0 -37 24.5 -59.5t61.5 -22.5 q33 0 55.5 24.5t22.5 61.5q0 35 -23.5 58.5t-58.5 23.5q-37 0 -59.5 -24.5t-22.5 -61.5z" />
<glyph unicode="&#xc6;" horiz-adv-x="1609" d="M96 -2v979q0 205 135.5 346t333.5 141q166 0 293 -104v92h670v-168h-395h-25q-47 0 -57.5 -12t-10.5 -37v-25l-2 -272q0 -25 14.5 -41t49.5 -16h20h379v-176h-387q-25 0 -35 -3q-14 -2 -27.5 -16t-13.5 -41l2 -379l4 -67q4 -6 19.5 -10.5t50.5 -4.5h430v-188h-686v457 q-4 23 -19.5 36t-47.5 13q-27 -2 -41 -2h-381q-29 0 -39 -2q-16 -4 -35 -19.5t-19 -58.5v-27v-395h-180zM281 739q0 -29 14 -46t36.5 -22t55.5 -5h346h29q31 0 39 2q18 4 33 20q8 8 14 22.5t6 37.5q-2 26 -2 40v201q0 127 -80 214t-211 87q-125 0 -201.5 -98t-76.5 -231 v-183q-2 -27 -2 -39z" />
<glyph unicode="&#xc7;" horiz-adv-x="1105" d="M49 723q0 299 216 511t517 212q131 0 248 -37v-182q-117 55 -248 55q-231 0 -395 -166t-164 -399q0 -231 164 -399t395 -168q70 0 131.5 15t114.5 42v-178q-57 -23 -105.5 -34t-97.5 -11v-63.5t2 -49.5q74 -18 120 -76.5t46 -136.5q0 -90 -63.5 -157.5t-155.5 -67.5 t-156 67l64 72q37 -43 86 -43q53 0 92 35t39 88t-36 91t-89 38q-12 0 -27.5 -3t-31.5 -11l-39 86q29 18 59 22v111q-285 0 -485.5 219t-200.5 518z" />
<glyph unicode="&#xc8;" horiz-adv-x="833" d="M96 -4v1456h670v-168h-395h-25q-47 0 -57 -12t-10 -37v-25l-3 -247q0 -47 14.5 -64.5t49.5 -17.5h20h379v-176h-387q-25 0 -35 -3q-14 -2 -27.5 -16t-13.5 -45v-18l3 -357l4 -67q4 -6 19 -10.5t50 -4.5h430v-188h-686zM274 1593v97l383 -66v-96z" />
<glyph unicode="&#xc9;" horiz-adv-x="833" d="M96 -4v1456h670v-168h-395h-25q-47 0 -57 -12t-10 -37v-25l-3 -247q0 -47 14.5 -64.5t49.5 -17.5h20h379v-176h-387q-25 0 -35 -3q-14 -2 -27.5 -16t-13.5 -45v-18l3 -357l4 -67q4 -6 19 -10.5t50 -4.5h430v-188h-686zM276 1528v96l383 66v-97z" />
<glyph unicode="&#xca;" horiz-adv-x="833" d="M96 -4v1456h670v-168h-395h-25q-47 0 -57 -12t-10 -37v-25l-3 -247q0 -47 14.5 -64.5t49.5 -17.5h20h379v-176h-387q-25 0 -35 -3q-14 -2 -27.5 -16t-13.5 -45v-18l3 -357l4 -67q4 -6 19 -10.5t50 -4.5h430v-188h-686zM254 1528v96l197 66l188 -66v-96l-188 63z" />
<glyph unicode="&#xcb;" horiz-adv-x="833" d="M96 -4v1456h670v-168h-395h-25q-47 0 -57 -12t-10 -37v-25l-3 -247q0 -47 14.5 -64.5t49.5 -17.5h20h379v-176h-387q-25 0 -35 -3q-14 -2 -27.5 -16t-13.5 -45v-18l3 -357l4 -67q4 -6 19 -10.5t50 -4.5h430v-188h-686zM205 1602q0 41 20.5 67.5t59.5 26.5 q33 0 61.5 -22.5t28.5 -57.5t-18.5 -59.5t-53.5 -28.5q-37 -8 -67.5 14.5t-30.5 59.5zM512 1602q0 41 20.5 67.5t59.5 26.5q33 0 61.5 -22.5t28.5 -57.5t-18.5 -59.5t-53.5 -28.5q-37 -8 -67.5 14.5t-30.5 59.5z" />
<glyph unicode="&#xcc;" horiz-adv-x="405" d="M12 1597v97l383 -66v-96zM98 -2v1466h199v-1466h-199z" />
<glyph unicode="&#xcd;" horiz-adv-x="405" d="M10 1528v96l383 66v-97zM98 -2v1466h199v-1466h-199z" />
<glyph unicode="&#xce;" horiz-adv-x="405" d="M12 1528v96l197 66l188 -66v-96l-188 63zM98 -2v1466h199v-1466h-199z" />
<glyph unicode="&#xcf;" horiz-adv-x="405" d="M0 1602q0 41 20.5 67.5t59.5 26.5q33 0 61.5 -22.5t28.5 -57.5t-18.5 -59.5t-53.5 -28.5q-37 -8 -67.5 14.5t-30.5 59.5zM98 -2v1466h199v-1466h-199zM229 1602q0 41 20.5 67.5t59.5 26.5q33 0 61.5 -22.5t28.5 -57.5t-18.5 -59.5t-52.5 -28.5q-37 -8 -68 14.5t-31 59.5z " />
<glyph unicode="&#xd0;" horiz-adv-x="1165" d="M-10 670v121h106v671h33h31h26h64.5t48.5 2q319 0 547 -198q238 -209 237 -523q0 -381 -270 -585q-207 -158 -459 -158l-258 -2v672h-106zM291 240q0 -70 96 -70q158 0 320 147q190 174 190 428q0 229 -199 396q-170 143 -325 143q-82 0 -82 -57v-436h170v-121h-170v-430 z" />
<glyph unicode="&#xd1;" horiz-adv-x="1216" d="M109 -4v1456l735 -850q31 -37 53 -55q33 -27 45 -19q10 6 14.5 44t4.5 79v51v750h174v-1466l-750 868q-31 39 -35 43q-25 23 -49 14q-31 -10 -31 -57q2 -33 2 -49v-809h-163zM416 1528v96q29 23 45 33q51 33 86 33q23 0 57.5 -19.5t71.5 -40.5q33 0 82 31q16 10 45 33 v-97q-27 -23 -43 -32q-49 -33 -84 -33q-25 0 -86 39q-33 20 -43 20q-33 0 -84 -30q-16 -10 -47 -33z" />
<glyph unicode="&#xd2;" horiz-adv-x="1572" d="M68 715q0 301 216 513t521 212q299 0 510 -217t211 -518q0 -299 -215 -512t-516 -213q-299 0 -513 216t-214 519zM240 709q0 -233 165.5 -397.5t399.5 -164.5q233 0 397 164t164 398q0 233 -165 398t-396 165q-233 0 -399 -164t-166 -399zM586 1593v97l383 -66v-96z" />
<glyph unicode="&#xd3;" horiz-adv-x="1572" d="M68 715q0 301 216 513t521 212q299 0 510 -217t211 -518q0 -299 -215 -512t-516 -213q-299 0 -513 216t-214 519zM240 709q0 -233 165.5 -397.5t399.5 -164.5q233 0 397 164t164 398q0 233 -165 398t-396 165q-233 0 -399 -164t-166 -399zM608 1528v96l383 66v-97z" />
<glyph unicode="&#xd4;" horiz-adv-x="1572" d="M68 715q0 301 216 513t521 212q299 0 510 -217t211 -518q0 -299 -215 -512t-516 -213q-299 0 -513 216t-214 519zM240 709q0 -233 165.5 -397.5t399.5 -164.5q233 0 397 164t164 398q0 233 -165 398t-396 165q-233 0 -399 -164t-166 -399zM614 1528v96l197 66l188 -66 v-96l-188 63z" />
<glyph unicode="&#xd5;" horiz-adv-x="1572" d="M68 715q0 301 216 513t521 212q299 0 510 -217t211 -518q0 -299 -215 -512t-516 -213q-299 0 -513 216t-214 519zM240 709q0 -233 165.5 -397.5t399.5 -164.5q233 0 397 164t164 398q0 233 -165 398t-396 165q-233 0 -399 -164t-166 -399zM608 1524v96q29 23 45 33 q51 33 86 33q23 0 57.5 -19.5t71.5 -40.5q33 0 82 31q16 10 45 33v-97q-27 -23 -43 -32q-49 -33 -84 -33q-25 0 -86 39q-33 20 -43 20q-33 0 -84 -31q-16 -10 -47 -32z" />
<glyph unicode="&#xd6;" horiz-adv-x="1572" d="M55 715q0 301 216 513t522 212q299 0 509.5 -217t210.5 -518q0 -299 -215 -512t-516 -213q-299 0 -513 216t-214 519zM227 709q0 -233 166 -397.5t400 -164.5q233 0 397 164t164 398q0 233 -165 398t-396 165q-233 0 -399.5 -164t-166.5 -399zM551 1618q0 41 20.5 67.5 t59.5 26.5q33 0 61.5 -22.5t28.5 -57.5t-18.5 -59.5t-53.5 -28.5q-37 -8 -67.5 14.5t-30.5 59.5zM858 1618q0 41 20.5 67.5t59.5 26.5q33 0 61.5 -22.5t28.5 -57.5t-18.5 -59.5t-53.5 -28.5q-37 -8 -67.5 14.5t-30.5 59.5z" />
<glyph unicode="&#xd7;" horiz-adv-x="0" />
<glyph unicode="&#xd8;" horiz-adv-x="1572" d="M68 715q0 301 216 513t521 212q160 0 303 -70l63 94h150l-107 -157q145 -100 228.5 -258t83.5 -344q0 -299 -215 -512t-516 -213q-104 0 -205 29.5t-187 86.5l-65 -98h-150l117 174q-113 104 -175 243.5t-62 299.5zM240 709q0 -233 165.5 -397.5t399.5 -164.5 q233 0 397 164t164 398q0 233 -165 398t-396 165q-233 0 -399 -164t-166 -399z" />
<glyph unicode="&#xd9;" horiz-adv-x="1126" d="M76 557v909h182v-909q0 -166 68 -268q82 -123 245 -123q176 0 250 125q55 94 56 270v905h182v-905q0 -258 -111 -405q-127 -170 -383 -170q-231 0 -364 166q-125 155 -125 405zM369 1593v97l383 -66v-96z" />
<glyph unicode="&#xda;" horiz-adv-x="1126" d="M76 557v909h182v-909q0 -166 68 -268q82 -123 245 -123q176 0 250 125q55 94 56 270v905h182v-905q0 -258 -111 -405q-127 -170 -383 -170q-231 0 -364 166q-125 155 -125 405zM391 1528v96l383 66v-97z" />
<glyph unicode="&#xdb;" horiz-adv-x="1126" d="M76 557v909h182v-909q0 -166 68 -268q82 -123 245 -123q176 0 250 125q55 94 56 270v905h182v-905q0 -258 -111 -405q-127 -170 -383 -170q-231 0 -364 166q-125 155 -125 405zM360 1528v96l197 66l188 -66v-96l-188 63z" />
<glyph unicode="&#xdc;" horiz-adv-x="1126" d="M76 557v909h182v-909q0 -166 68 -268q82 -123 245 -123q176 0 250 125q55 94 56 270v905h182v-905q0 -258 -111 -405q-127 -170 -383 -170q-231 0 -364 166q-125 155 -125 405zM324 1602q0 41 20.5 67.5t58.5 26.5q33 0 62 -22.5t29 -57.5t-18.5 -59.5t-53.5 -28.5 q-37 -8 -67.5 14.5t-30.5 59.5zM631 1602q0 41 20.5 67.5t59.5 26.5q33 0 61.5 -22.5t28.5 -57.5t-18.5 -59.5t-53.5 -28.5q-37 -8 -67.5 14.5t-30.5 59.5z" />
<glyph unicode="&#xdd;" horiz-adv-x="1138" d="M25 1456h215q176 -379 243 -500q53 -96 80 -96q23 0 66 68q35 55 110 202q162 315 168 326h199q-27 -53 -180 -326q-117 -207 -185 -350q-86 -180 -86 -250v-45v-34v-76v-68v-59v-49v-41v-33v-27v-66.5t-2 -31.5h-204v209.5v322.5q0 70 -74 238q-57 131 -168 342 q-92 172 -182 344zM391 1528v96l383 66v-97z" />
<glyph unicode="&#xde;" horiz-adv-x="1228" d="M98 -2v1466h199v-295q135 106 348 107q203 0 352.5 -131t169.5 -336q2 -12 2 -25v-22q0 -193 -127 -335t-323 -179q-68 -10 -111 -10q-137 0 -237 65q-33 20 -74 66v-371h-199zM297 782q0 -190 104 -280q90 -78 248 -78q139 0 236.5 99.5t97.5 242.5q0 141 -100.5 241.5 t-239.5 100.5q-145 0 -240 -80q-106 -90 -106 -246z" />
<glyph unicode="&#xdf;" horiz-adv-x="1005" d="M96 -180v1194q0 225 111 342q102 109 280 108q162 0 282 -109.5t120 -260.5q0 -96 -45 -181q-49 -68 -96 -135q78 -37 138 -125t60 -229q0 -180 -115.5 -302t-304.5 -122h-178l-2 178q197 0 277 29q160 57 159 239q0 113 -83 177.5t-203 64.5h-144v156h154 q92 0 151.5 69.5t59.5 171.5q0 90 -66.5 148.5t-161.5 58.5q-90 0 -154.5 -56t-64.5 -146v-1270h-174z" />
<glyph unicode="&#xe0;" horiz-adv-x="1148" d="M49 449q0 188 136.5 320t328.5 132q170 0 295 -110.5t152 -276.5l217 -518l-183 4l-94 205q-59 -98 -163.5 -158.5t-223.5 -60.5q-193 0 -329 136t-136 327zM201 444q0 -131 91 -222t222 -91t221 94t90 228q0 127 -92 215t-219 88q-129 0 -221 -90.5t-92 -221.5z M332 1061v96l383 -65v-97z" />
<glyph unicode="&#xe1;" d="M49 449q0 188 136.5 320t328.5 132q170 0 295 -110.5t152 -276.5l217 -518l-183 4l-94 205q-59 -98 -163.5 -158.5t-223.5 -60.5q-193 0 -329 136t-136 327zM201 444q0 -131 91 -222t222 -91t221 94t90 228q0 127 -92 215t-219 88q-129 0 -221 -90.5t-92 -221.5z M342 1008v96l383 65v-96z" />
<glyph unicode="&#xe2;" horiz-adv-x="1138" d="M49 449q0 188 136.5 320t328.5 132q170 0 295 -110.5t152 -276.5l217 -518l-183 4l-94 205q-59 -98 -163.5 -158.5t-223.5 -60.5q-193 0 -329 136t-136 327zM201 444q0 -131 91 -222t222 -91t221 94t90 228q0 127 -92 215t-219 88q-129 0 -221 -90.5t-92 -221.5z M315 1008v96l197 65l188 -65v-96l-188 63z" />
<glyph unicode="&#xe3;" horiz-adv-x="1144" d="M49 449q0 188 136.5 320t328.5 132q170 0 295 -110.5t152 -276.5l217 -518l-183 4l-94 205q-59 -98 -163.5 -158.5t-223.5 -60.5q-193 0 -329 136t-136 327zM201 444q0 -131 91 -222t222 -91t221 94t90 228q0 127 -92 215t-219 88q-129 0 -221 -90.5t-92 -221.5z M326 1004v96q29 23 45 33q51 33 86 32q23 0 57.5 -19.5t71.5 -39.5q33 0 82 31q16 10 45 32v-96q-27 -23 -43 -33q-49 -33 -84 -32q-25 0 -86 39q-33 20 -43 20q-33 0 -84 -31q-16 -10 -47 -32z" />
<glyph unicode="&#xe4;" horiz-adv-x="1144" d="M49 449q0 188 136.5 320t328.5 132q170 0 295 -110.5t152 -276.5l217 -518l-183 4l-94 205q-59 -98 -163.5 -158.5t-223.5 -60.5q-193 0 -329 136t-136 327zM201 444q0 -131 91 -222t222 -91t221 94t90 228q0 127 -92 215t-219 88q-129 0 -221 -90.5t-92 -221.5z M274 1081q0 41 20.5 68t59.5 27q33 0 61.5 -23t28.5 -57q0 -35 -18 -59.5t-53 -28.5q-37 -8 -68 14t-31 59zM582 1081q0 41 20.5 68t59.5 27q33 0 61.5 -23t28.5 -57q0 -35 -18.5 -59.5t-53.5 -28.5q-37 -8 -67.5 14t-30.5 59z" />
<glyph unicode="&#xe5;" horiz-adv-x="1148" d="M49 449q0 188 136.5 320t328.5 132q170 0 295 -110.5t152 -276.5l217 -518l-183 4l-94 205q-59 -98 -163.5 -158.5t-223.5 -60.5q-193 0 -329 136t-136 327zM201 444q0 -131 91 -222t222 -91t221 94t90 228q0 127 -92 215t-219 88q-129 0 -221 -90.5t-92 -221.5z M371 1159q0 59 43 102.5t102 43.5t102.5 -43t43.5 -103q0 -61 -41 -106t-105 -45q-59 0 -102 45t-43 106zM434 1155q0 -37 24.5 -59.5t61.5 -22.5q33 0 55.5 24.5t22.5 61.5q0 35 -23.5 58.5t-58.5 23.5q-37 0 -59.5 -24.5t-22.5 -61.5z" />
<glyph unicode="&#xe6;" horiz-adv-x="1519" d="M39 330q0 141 101.5 240.5t246.5 99.5q78 0 148 -33q23 -10 55 -33q0 74 -66.5 121t-144.5 47q-66 0 -115 -14q-82 -25 -127 -84l-69 119q63 72 145 101.5t166 29.5q88 0 174 -47.5t131 -118.5q66 70 153 109.5t185 39.5q193 0 333 -138t140 -329q0 -35 -2 -51h-659 q-45 0 -67 -4t-26 -29q-12 -66 82.5 -144.5t196.5 -78.5q66 0 135 31q47 20 102 61l93 -106q-78 -66 -156 -96.5t-178 -30.5q-98 0 -186.5 42t-151.5 116q-47 -78 -123 -122t-168 -44q-145 0 -246.5 101t-101.5 245zM195 328q0 -80 55 -135.5t137 -55.5q78 0 133 57.5 t55 139.5q0 74 -55 129t-133 55t-135 -55t-57 -135zM758 547q2 -10 18.5 -14.5t36.5 -4.5h27h381h34q35 0 52.5 6.5t11.5 22.5q-23 90 -101.5 147.5t-181.5 57.5q-100 0 -193 -72t-85 -143z" />
<glyph unicode="&#xe7;" horiz-adv-x="765" d="M45 446q0 111 45 206.5t131 158.5q129 92 266 92q109 0 215 -57v-162q-90 74 -200 74q-121 0 -211 -82q-102 -92 -103 -240q0 -141 101 -221q113 -88 215 -88q51 0 99 19.5t95 58.5v-172q-82 -39 -159 -47v-62.5t2 -36.5q74 -18 120 -76.5t46 -136.5q0 -90 -63.5 -157.5 t-156.5 -67.5q-92 0 -155 68l63 71q37 -43 86 -43q53 0 92 35t39 88t-35.5 91t-89.5 38q-12 0 -27.5 -3t-31.5 -11l-39 86q29 18 60 22l-3 95q-150 18 -262 127q-68 66 -103.5 151.5t-35.5 181.5z" />
<glyph unicode="&#xe8;" horiz-adv-x="1013" d="M49 455q0 184 135 315t324 131q193 0 333 -138t140 -329q0 -35 -2 -51h-660q-45 0 -66.5 -4t-25.5 -29q-12 -66 82 -144.5t197 -78.5q66 0 135 31q47 20 102 61l93 -106q-78 -66 -156 -96.5t-178 -30.5q-188 0 -320.5 138t-132.5 331zM244 541q2 -10 18.5 -14.5 t36.5 -4.5h27h381h34q35 0 52.5 6.5t11.5 22.5q-23 90 -101.5 147.5t-181.5 57.5q-100 0 -193 -72t-85 -143zM315 1073v96l383 -65v-96z" />
<glyph unicode="&#xe9;" horiz-adv-x="1013" d="M49 455q0 184 135 315t324 131q193 0 333 -138t140 -329q0 -35 -2 -51h-660q-45 0 -66.5 -4t-25.5 -29q-12 -66 82 -144.5t197 -78.5q66 0 135 31q47 20 102 61l93 -106q-78 -66 -156 -96.5t-178 -30.5q-188 0 -320.5 138t-132.5 331zM244 541q2 -10 18.5 -14.5 t36.5 -4.5h27h381h34q35 0 52.5 6.5t11.5 22.5q-23 90 -101.5 147.5t-181.5 57.5q-100 0 -193 -72t-85 -143zM326 1008v96l383 65v-96z" />
<glyph unicode="&#xea;" horiz-adv-x="1009" d="M49 455q0 184 135 315t324 131q193 0 333 -138t140 -329q0 -35 -2 -51h-660q-45 0 -66.5 -4t-25.5 -29q-12 -66 82 -144.5t197 -78.5q66 0 135 31q47 20 102 61l93 -106q-78 -66 -156 -96.5t-178 -30.5q-188 0 -320.5 138t-132.5 331zM244 541q2 -10 18.5 -14.5 t36.5 -4.5h27h381h34q35 0 52.5 6.5t11.5 22.5q-23 90 -101.5 147.5t-181.5 57.5q-100 0 -193 -72t-85 -143zM307 1008v96l197 65l188 -65v-96l-188 63z" />
<glyph unicode="&#xeb;" horiz-adv-x="1017" d="M49 455q0 184 135 315t324 131q193 0 333 -138t140 -329q0 -35 -2 -51h-660q-45 0 -66.5 -4t-25.5 -29q-12 -66 82 -144.5t197 -78.5q66 0 135 31q47 20 102 61l93 -106q-78 -66 -156 -96.5t-178 -30.5q-188 0 -320.5 138t-132.5 331zM244 541q2 -10 18.5 -14.5 t36.5 -4.5h27h381h34q35 0 52.5 6.5t11.5 22.5q-23 90 -101.5 147.5t-181.5 57.5q-100 0 -193 -72t-85 -143zM266 1081q0 41 20.5 68t59.5 27q33 0 61.5 -23t28.5 -57q0 -35 -18.5 -59.5t-52.5 -28.5q-37 -8 -68 14t-31 59zM573 1081q0 41 20.5 68t59.5 27q33 0 61.5 -23 t28.5 -57q0 -35 -18 -59.5t-53 -28.5q-37 -8 -68 14t-31 59z" />
<glyph unicode="&#xec;" horiz-adv-x="364" d="M-12 1073v96l383 -65v-96zM96 -4v919h152v-919h-152z" />
<glyph unicode="&#xed;" horiz-adv-x="364" d="M-10 1008v96l383 65v-96zM96 -4v919h152v-919h-152z" />
<glyph unicode="&#xee;" horiz-adv-x="364" d="M-14 1008v96l196 65l189 -65v-96l-189 63zM96 -4v919h152v-919h-152z" />
<glyph unicode="&#xef;" horiz-adv-x="364" d="M-37 1081q0 41 20.5 68t59.5 27q33 0 61.5 -23t28.5 -57q0 -35 -18.5 -59.5t-53.5 -28.5q-37 -8 -67.5 14t-30.5 59zM96 -4v919h152v-919h-152zM238 1081q0 41 20.5 68t58.5 27q33 0 62 -23t29 -57q0 -35 -18.5 -59.5t-53.5 -28.5q-37 -8 -67.5 14t-30.5 59z" />
<glyph unicode="&#xf0;" horiz-adv-x="1134" d="M49 481q0 201 141.5 344.5t350.5 143.5q55 0 114 -13q16 -2 17 13q0 14 -14.5 44.5t-18.5 41.5l-31 57l-149 -53l-41 115l131 47l-84 161l174 58l82 -156l139 51l41 -114l-123 -45l166 -318q59 -115 70 -135q55 -117 55 -234q0 -213 -143.5 -362.5t-350.5 -149.5 q-213 0 -369.5 146.5t-156.5 357.5zM236 461q0 -131 104 -217t246 -86q131 0 219 104.5t88 245.5q0 131 -105.5 217t-246.5 86q-131 0 -218 -105.5t-87 -244.5z" />
<glyph unicode="&#xf1;" horiz-adv-x="950" d="M98 0v590q0 166 117 248q102 72 264 71q160 0 262 -75q117 -86 117 -244v-590h-149v520q0 125 -62.5 181.5t-167.5 56.5q-100 0 -169.5 -56.5t-69.5 -162.5v-539h-142zM293 1008v96q29 23 45 33q51 33 86 32q23 0 57.5 -19.5t71.5 -39.5q33 0 82 31q16 10 45 33v-97 q-27 -23 -43 -33q-49 -33 -84 -32q-25 0 -86 39q-33 20 -43 20q-33 0 -84 -31q-16 -10 -47 -32z" />
<glyph unicode="&#xf2;" horiz-adv-x="1019" d="M55 449q0 188 136.5 320t328.5 132q188 0 320.5 -136t132.5 -327q0 -188 -132 -320t-321 -132q-193 0 -329 136.5t-136 326.5zM207 444q0 -131 91 -222t222 -91t221 94t90 228q0 127 -92 215t-219 88q-129 0 -221 -90.5t-92 -221.5zM340 1073v96l383 -65v-96z" />
<glyph unicode="&#xf3;" horiz-adv-x="1019" d="M55 449q0 188 136.5 320t328.5 132q188 0 320.5 -136t132.5 -327q0 -188 -132 -320t-321 -132q-193 0 -329 136.5t-136 326.5zM207 444q0 -131 91 -222t222 -91t221 94t90 228q0 127 -92 215t-219 88q-129 0 -221 -90.5t-92 -221.5zM342 995v97l383 65v-96z" />
<glyph unicode="&#xf4;" horiz-adv-x="1019" d="M55 449q0 188 136.5 320t328.5 132q188 0 320.5 -136t132.5 -327q0 -188 -132 -320t-321 -132q-193 0 -329 136.5t-136 326.5zM207 444q0 -131 91 -222t222 -91t221 94t90 228q0 127 -92 215t-219 88q-129 0 -221 -90.5t-92 -221.5zM324 1008v96l196 65l189 -65v-96 l-189 63z" />
<glyph unicode="&#xf5;" horiz-adv-x="1019" d="M55 449q0 188 136.5 320t328.5 132q188 0 320.5 -136t132.5 -327q0 -188 -132 -320t-321 -132q-193 0 -329 136.5t-136 326.5zM207 444q0 -131 91 -222t222 -91t221 94t90 228q0 127 -92 215t-219 88q-129 0 -221 -90.5t-92 -221.5zM334 1004v96q29 23 45 33q51 33 86 32 q23 0 57.5 -19.5t71.5 -39.5q33 0 82 31q16 10 45 32v-96q-27 -23 -43 -33q-49 -33 -84 -32q-25 0 -86 39q-33 20 -43 20q-33 0 -84 -31q-16 -10 -47 -32z" />
<glyph unicode="&#xf6;" horiz-adv-x="1019" d="M55 449q0 188 136.5 320t328.5 132q188 0 320.5 -136t132.5 -327q0 -188 -132 -320t-321 -132q-193 0 -329 136.5t-136 326.5zM207 444q0 -131 91 -222t222 -91t221 94t90 228q0 127 -92 215t-219 88q-129 0 -221 -90.5t-92 -221.5zM283 1081q0 41 20.5 68t58.5 27 q33 0 62 -23t29 -57q0 -35 -18.5 -59.5t-53.5 -28.5q-37 -8 -67.5 14t-30.5 59zM590 1081q0 41 20.5 68t59.5 27q33 0 61.5 -23t28.5 -57q0 -35 -18.5 -59.5t-53.5 -28.5q-37 -8 -67.5 14t-30.5 59z" />
<glyph unicode="&#xf8;" horiz-adv-x="1019" d="M55 449q0 188 136.5 320t328.5 132q117 0 219 -57l60 63h149l-114 -133q139 -135 139 -336q0 -188 -132 -320t-321 -132q-141 0 -258 75l-49 -61h-150l111 137q-55 63 -87 144t-32 168zM207 444q0 -131 91 -222t222 -91t221 94t90 228q0 127 -92 215t-219 88 q-129 0 -221 -90.5t-92 -221.5z" />
<glyph unicode="&#xf9;" horiz-adv-x="974" d="M96 313v605h146v-549q0 -96 72.5 -162t172.5 -66q98 0 168 72t70 174v531h154v-605q0 -143 -118 -235t-274 -92q-158 0 -270 88q-121 94 -121 239zM299 1073v96l383 -65v-96z" />
<glyph unicode="&#xfa;" horiz-adv-x="974" d="M96 313v605h146v-549q0 -96 72.5 -162t172.5 -66q98 0 168 72t70 174v531h154v-605q0 -143 -118 -235t-274 -92q-158 0 -270 88q-121 94 -121 239zM285 1008v96l383 65v-96z" />
<glyph unicode="&#xfb;" horiz-adv-x="974" d="M96 313v605h146v-549q0 -96 72.5 -162t172.5 -66q98 0 168 72t70 174v531h154v-605q0 -143 -118 -235t-274 -92q-158 0 -270 88q-121 94 -121 239zM291 1008v96l196 65l189 -65v-96l-189 63z" />
<glyph unicode="&#xfc;" horiz-adv-x="974" d="M96 313v605h146v-549q0 -96 72.5 -162t172.5 -66q98 0 168 72t70 174v531h154v-605q0 -143 -118 -235t-274 -92q-158 0 -270 88q-121 94 -121 239zM233 1081q0 41 20.5 68t59.5 27q33 0 61.5 -23t28.5 -57q0 -35 -18 -59.5t-53 -28.5q-37 -8 -68 14t-31 59zM541 1081 q0 41 20.5 68t59.5 27q33 0 61.5 -23t28.5 -57q0 -35 -18.5 -59.5t-53.5 -28.5q-37 -8 -67.5 14t-30.5 59z" />
<glyph unicode="&#xfd;" horiz-adv-x="983" d="M-53 -301l114 90q57 -74 164 -111q84 -29 178 -28q178 0 271 147q68 109 67 238q0 37 -6 47q-4 8 -10 2q-39 -43 -94 -74q-70 -39 -137 -39q-18 -2 -29 -2q-152 0 -261.5 120t-109.5 284v545h168v-537q0 -102 67.5 -178t166.5 -76q104 0 169.5 78.5t65.5 187.5v525h164 v-746q0 -330 -143 -498q-123 -143 -344 -166q-25 -2 -43.5 -3t-28.5 -1q-119 0 -212 48.5t-177 146.5zM301 1004v96l383 65v-96z" />
<glyph unicode="&#xfe;" horiz-adv-x="1081" d="M98 -539v1457h152v-300q68 66 147.5 105t165.5 39q188 0 320.5 -136.5t132.5 -328.5q0 -188 -131 -319.5t-322 -131.5q-100 0 -178 35q-31 14 -135 82v-502h-152zM250 305q0 -129 92 -221t221 -92t220 93t91 226q0 127 -91 216t-220 89q-127 0 -220 -91t-93 -220z" />
<glyph unicode="&#xff;" horiz-adv-x="983" d="M-53 -301l114 90q57 -74 164 -111q84 -29 178 -28q178 0 271 147q68 109 67 238q0 37 -6 47q-4 8 -10 2q-39 -43 -94 -74q-70 -39 -137 -39q-18 -2 -29 -2q-152 0 -261.5 120t-109.5 284v545h168v-537q0 -102 67.5 -178t166.5 -76q104 0 169.5 78.5t65.5 187.5v525h164 v-746q0 -330 -143 -498q-123 -143 -344 -166q-25 -2 -43.5 -3t-28.5 -1q-119 0 -212 48.5t-177 146.5zM242 1081q0 41 20.5 68t59.5 27q33 0 61.5 -23t28.5 -57q0 -35 -18.5 -59.5t-53.5 -28.5q-37 -8 -67.5 14t-30.5 59zM549 1081q0 41 20.5 68t59.5 27q33 0 61.5 -23 t28.5 -57q0 -35 -18.5 -59.5t-53.5 -28.5q-37 -8 -67.5 14t-30.5 59z" />
<glyph unicode="&#x152;" horiz-adv-x="2101" d="M68 715q0 301 216 513t521 212q170 0 314.5 -72t246.5 -203v291h670v-168h-396h-24q-47 0 -57.5 -12t-10.5 -37v-25l-2 -247q0 -47 14.5 -64.5t49.5 -17.5h20h379v-176h-387q-25 0 -35 -2q-14 -2 -27.5 -16.5t-13.5 -45.5v-18l2 -357l4 -67q4 -6 19.5 -10.5t50.5 -4.5 h430v-188h-686v252q-104 -127 -252.5 -199.5t-318.5 -72.5q-299 0 -513 216t-214 519zM240 709q0 -233 165.5 -397.5t399.5 -164.5q233 0 397 164t164 398q0 233 -165 398t-396 165q-233 0 -399 -164t-166 -399z" />
<glyph unicode="&#x153;" horiz-adv-x="1765" d="M55 449q0 188 136.5 320t328.5 132q111 0 206 -50t159 -140q66 82 162 130t202 48q193 0 333 -138.5t140 -328.5q0 -35 -2 -51h-659q-45 0 -66.5 -4.5t-25.5 -28.5q-12 -66 82 -144.5t196 -78.5q66 0 135 30q47 20 103 62l92 -107q-78 -66 -156 -96.5t-178 -30.5 q-109 0 -203.5 51.5t-160.5 139.5q-63 -82 -155.5 -130t-203.5 -48q-193 0 -329 136t-136 327zM207 444q0 -131 91 -222t222 -91t221 94t90 228q0 127 -92 215t-219 88q-129 0 -221 -90.5t-92 -221.5zM985 528q2 -10 18.5 -14t36.5 -4h27h381h35q35 0 52 6.5t11 22.5 q-23 90 -101.5 147t-180.5 57q-100 0 -193.5 -71.5t-85.5 -143.5z" />
<glyph unicode="&#x178;" horiz-adv-x="1087" d="M6 1456h215q176 -379 244 -500q53 -96 80 -96q23 0 65 68q35 55 111 202q162 315 168 326h198q-27 -53 -180 -326q-117 -207 -184 -350q-86 -180 -86 -250v-45v-34v-76v-68v-59v-49v-41v-33v-27v-66.5t-2 -31.5h-205v209.5v322.5q0 70 -74 238q-57 131 -168 342 q-92 172 -182 344zM305 1602q0 41 20.5 67.5t59.5 26.5q33 0 61.5 -22.5t28.5 -57.5t-18.5 -59.5t-53.5 -28.5q-37 -8 -67.5 14.5t-30.5 59.5zM612 1602q0 41 20.5 67.5t59.5 26.5q33 0 61.5 -22.5t28.5 -57.5t-18.5 -59.5t-52.5 -28.5q-37 -8 -68 14.5t-31 59.5z" />
<glyph unicode="&#x2c6;" d="M389 1534v96l197 66l188 -66v-96l-188 63z" />
<glyph unicode="&#x2dc;" d="M293 1524v96q29 23 45 33q51 33 86 33q23 0 57.5 -19.5t71.5 -40.5q33 0 82 31q16 10 45 33v-97q-27 -23 -43 -32q-49 -33 -84 -33q-25 0 -86 39q-33 20 -43 20q-33 0 -84 -31q-16 -10 -47 -32z" />
<glyph unicode="&#x2000;" horiz-adv-x="911" />
<glyph unicode="&#x2001;" horiz-adv-x="1823" />
<glyph unicode="&#x2002;" horiz-adv-x="911" />
<glyph unicode="&#x2003;" horiz-adv-x="1823" />
<glyph unicode="&#x2004;" horiz-adv-x="607" />
<glyph unicode="&#x2005;" horiz-adv-x="455" />
<glyph unicode="&#x2006;" horiz-adv-x="303" />
<glyph unicode="&#x2007;" horiz-adv-x="303" />
<glyph unicode="&#x2008;" horiz-adv-x="227" />
<glyph unicode="&#x2009;" horiz-adv-x="364" />
<glyph unicode="&#x200a;" horiz-adv-x="101" />
<glyph unicode="&#x2010;" horiz-adv-x="565" d="M47 473v121h471v-121h-471z" />
<glyph unicode="&#x2011;" horiz-adv-x="565" d="M47 473v121h471v-121h-471z" />
<glyph unicode="&#x2012;" horiz-adv-x="565" d="M47 473v121h471v-121h-471z" />
<glyph unicode="&#x2013;" horiz-adv-x="667" d="M47 473v121h565v-121h-565z" />
<glyph unicode="&#x2014;" horiz-adv-x="905" d="M47 473v121h795v-121h-795z" />
<glyph unicode="&#x2018;" horiz-adv-x="333" d="M49 1214q0 43 14 66l115 186h86l-67 -92q-6 -8 -11 -16q-6 -14 -2 -19q31 -25 62 -47q35 -33 35 -71q0 -49 -35 -84t-86 -35q-45 0 -78 32.5t-33 79.5z" />
<glyph unicode="&#x2019;" horiz-adv-x="331" d="M49 1343q0 51 35 86t88 35q45 0 78 -32.5t33 -79.5q-1 -41 -15 -66l-114 -186h-88l69 92q6 8 10 16q6 12 0 17q-31 23 -61 47q-35 33 -35 71z" />
<glyph unicode="&#x201a;" horiz-adv-x="331" d="M45 106q0 51 35 86t88 35q45 0 78 -32.5t33 -79.5q-1 -41 -15 -66l-114 -186h-89l70 92q6 8 10 16q6 12 0 17q-31 23 -61 47q-35 33 -35 71z" />
<glyph unicode="&#x201c;" horiz-adv-x="716" d="M49 1219q0 42 14 65l115 186h86l-67 -92q-6 -8 -11 -16q-6 -14 -2 -19q31 -25 62 -47q35 -33 35 -71q0 -49 -35 -84t-86 -35q-45 0 -78 32.5t-33 80.5zM412 1219q0 38 14 65l115 186h88l-70 -92l-8 -16q-6 -14 -2 -19q31 -25 61 -47q35 -33 35 -71q0 -49 -35 -84t-86 -35 q-47 0 -79.5 32.5t-32.5 80.5z" />
<glyph unicode="&#x201d;" horiz-adv-x="696" d="M49 1339q0 51 35 86t88 35q45 0 78 -32.5t33 -79.5q-1 -41 -15 -66l-114 -186h-88l69 92q6 8 10 16q6 12 0 17q-31 23 -61 47q-35 33 -35 71zM414 1339q0 51 34.5 86t86.5 35q47 0 79.5 -32.5t32.5 -79.5q0 -41 -14 -66l-115 -186h-88l70 92l8 16q6 12 2 17 q-31 23 -61 47q-35 33 -35 71z" />
<glyph unicode="&#x201e;" horiz-adv-x="696" d="M43 123q0 51 35 86t88 35q45 0 77.5 -33t32.5 -80q0 -40 -14 -65l-115 -187h-88l70 92q6 8 10 17q6 12 0 16q-31 23 -61 47q-35 33 -35 72zM408 123q0 51 34.5 86t85.5 35q47 0 80 -33t33 -80q0 -40 -14 -65l-115 -187h-88l70 92q4 8 8 17q6 12 2 16q-31 23 -62 47 q-35 33 -34 72z" />
<glyph unicode="&#x2022;" horiz-adv-x="362" d="M49 686q0 61 33 105.5t96 44.5q53 0 98.5 -36t45.5 -91t-31 -96.5t-84 -49.5q-59 -10 -108.5 28t-49.5 95z" />
<glyph unicode="&#x2026;" horiz-adv-x="1044" d="M53 98q0 53 26.5 89t80.5 36q47 0 84 -29.5t37 -76.5t-26 -81t-71 -40q-51 -8 -91 22.5t-40 79.5zM412 98q0 53 26.5 89t79.5 36q47 0 84 -29.5t37 -76.5t-25.5 -81t-70.5 -40q-51 -8 -91 22.5t-40 79.5zM770 98q0 53 26.5 89t80.5 36q47 0 83.5 -29.5t36.5 -76.5 t-25.5 -81t-70.5 -40q-51 -8 -91 22.5t-40 79.5z" />
<glyph unicode="&#x202f;" horiz-adv-x="364" />
<glyph unicode="&#x2039;" horiz-adv-x="532" d="M49 653l305 305l84 -86l-221 -221l223 -221l-86 -84z" />
<glyph unicode="&#x203a;" horiz-adv-x="532" d="M68 426l223 221l-221 221l84 86l305 -305l-305 -307z" />
<glyph unicode="&#x205f;" horiz-adv-x="455" />
<glyph unicode="&#x25fc;" horiz-adv-x="921" d="M0 0v922h922v-922h-922z" />
</font>
</defs>
</svg>
